<svg width="258" height="81" viewBox="0 0 258 81" fill="none" xmlns="http://www.w3.org/2000/svg">
<rect x="0.5" y="0.57373" width="256.889" height="79.6745" rx="25.6486" fill="black"/>
<path d="M42.8398 15.561L42.6774 22.9496L35.4221 22.9789L43.1393 30.6978L48.8167 30.713L53.4757 35.372H53.4759C54.1987 36.0948 54.8307 35.9131 55.1942 35.5791C55.3759 35.4119 55.473 35.2109 55.4683 34.957C55.4636 34.7032 55.3566 34.3465 54.9026 33.8927L50.4628 29.4529L50.5575 23.2797L42.8396 15.5612L42.8398 15.561ZM63.6842 28.2546C60.7317 28.2612 57.8385 29.3129 55.5957 31.3917C55.9254 31.564 56.2269 31.7855 56.4898 32.0488C57.9161 33.4756 57.917 35.7879 56.4919 37.2132C55.0668 38.6385 52.7553 38.6374 51.3288 37.2105C51.295 37.1771 51.2627 37.1424 51.2306 37.1078C50.2715 38.6555 49.3621 40.2822 48.5681 41.7999C46.8956 44.9972 45.8539 47.3879 45.6156 47.9396C45.953 48.5787 46.3421 49.1891 46.779 49.7648L48.6688 46.9043L50.297 47.9802L48.1208 51.2738C48.7237 51.8547 49.3711 52.3721 50.0563 52.8395L52.0083 49.8851L53.6364 50.9606L51.7254 53.8529C52.4698 54.2574 53.2459 54.6243 54.0444 54.9706L55.5216 52.165L57.2482 53.0741L55.8583 55.7141C56.5199 55.9731 57.1911 56.2278 57.8696 56.4839C59.9979 52.7993 61.9689 48.9539 66.1604 47.5745L66.7704 49.4281C65.2259 49.9363 64.025 50.9061 62.9652 52.1706C64.5218 52.265 66.2962 52.2653 67.9774 52.058C68.4471 52.0002 68.914 51.9226 69.3771 51.8254L70.9105 47.7851L69.5241 47.6319L70.0683 42.2333L72.0107 42.4291L71.6601 45.9038L73.6295 46.1215L72.6694 48.6511L73.7014 49.7225C78.2005 44.9911 77.969 37.1712 72.972 32.1663L72.9653 32.1598C70.4268 29.6205 67.1828 28.3269 63.9836 28.2574C63.8836 28.2553 63.7837 28.2544 63.6838 28.2546H63.6842ZM63.0651 36.3922C64.3525 36.3927 65.6401 36.8815 66.6169 37.8584C68.3136 39.5554 68.5337 42.188 67.2839 44.1308C67.2839 44.1308 67.2331 44.2736 66.6196 44.9619C64.6668 46.9148 61.4705 46.9131 59.5169 44.9591C57.5637 43.0055 57.5616 39.809 59.5143 37.856C60.4906 36.8797 61.7776 36.3918 63.065 36.3923L63.0651 36.3922ZM63.0647 38.3306C62.2806 38.3302 61.4969 38.632 60.8935 39.2353C59.6871 40.442 59.6878 42.371 60.8964 43.5798C62.1055 44.7889 64.0335 44.7893 65.24 43.5826C66.4465 42.3759 66.446 40.4465 65.2374 39.2378C64.633 38.6333 63.8487 38.3309 63.0648 38.3306H63.0647ZM56.8348 39.2856L54.5283 46.4955L50.7663 43.4541L56.8347 39.2856H56.8348ZM82.4011 47.5489C80.6861 47.5513 78.8317 48.1862 76.8995 49.1735L82.7131 51.1354L84.0673 47.7676C83.5289 47.6174 82.9726 47.548 82.4011 47.5489ZM71.9035 50.6697L71.0394 52.9468L77.3156 59.2957L73.7539 60.6807C76.5439 63.4707 79.4494 65.4085 85.0053 65.2464C84.8849 60.2948 83.2951 56.85 80.44 53.9951L78.9062 57.9385L71.9035 50.6697ZM67.8897 55.3988L68.7431 60.2966C69.9186 60.5612 71.2524 59.8649 71.7127 58.7131L70.8256 56.0156L69.4589 56.3708L67.8897 55.3988ZM66.0258 57.1902L62.7181 61.6999C63.3766 62.7416 64.8443 63.2021 66.0101 62.702L66.0257 57.19L66.0258 57.1902Z" fill="white"/>
<g filter="url(#filter0_d_197_493)">
<path d="M119.72 53.3896C119.753 53.3896 119.769 53.3896 119.769 53.3896C119.704 53.4551 119.605 53.4879 119.474 53.4879C119.409 53.5207 119.343 53.537 119.278 53.537V53.193C119.31 53.1603 119.343 53.1439 119.376 53.1439C119.441 53.1767 119.491 53.2258 119.523 53.2913C119.556 53.3241 119.622 53.3568 119.72 53.3896C119.753 53.2586 119.785 53.1439 119.818 53.0456C119.851 52.9145 119.916 52.8163 120.015 52.7507C120.08 52.6852 120.113 52.6197 120.113 52.5542C120.113 52.4559 120.113 52.374 120.113 52.3084C120.08 52.2429 120.048 52.1774 120.015 52.1119C119.982 52.0136 119.949 51.9317 119.916 51.8661C119.884 51.8006 119.884 51.7023 119.916 51.5713V51.2273C119.916 51.2273 119.9 51.2273 119.867 51.2273C119.867 51.2273 119.867 51.2109 119.867 51.1781C119.802 51.2764 119.654 51.4402 119.425 51.6696C119.392 51.473 119.441 51.3255 119.572 51.2273C119.736 51.129 119.851 51.0307 119.916 50.9324C119.982 50.8341 120.048 50.7358 120.113 50.6375C120.179 50.5392 120.195 50.3918 120.162 50.1952C120.359 50.2935 120.49 50.3754 120.555 50.441C120.719 50.2771 120.817 49.9987 120.85 49.6055C120.916 49.1796 120.883 48.9011 120.752 48.77C120.686 48.9011 120.654 48.9666 120.654 48.9666L120.506 49.4089V49.6546C120.31 49.6546 120.211 49.5727 120.211 49.4089C120.277 49.2451 120.293 49.0977 120.26 48.9666C120.26 48.8028 120.277 48.639 120.31 48.4752C120.31 48.3114 120.31 48.1476 120.31 47.9837C120.342 47.7872 120.359 47.5742 120.359 47.3449C120.359 47.2793 120.31 47.2302 120.211 47.1974C120.146 47.0664 120.048 47.0008 119.916 47.0008C119.785 46.9681 119.622 46.9353 119.425 46.9026C119.261 46.9026 119.179 47.0008 119.179 47.1974C119.147 47.3285 119.13 47.4923 119.13 47.6889C119.13 47.8527 119.13 48.0165 119.13 48.1803C119.097 48.3114 119.081 48.4424 119.081 48.5735C119.081 48.6718 119.065 48.7864 119.032 48.9175C118.999 49.0485 118.966 49.1796 118.934 49.3106C118.934 49.4089 118.917 49.5236 118.884 49.6546C118.786 49.3925 118.737 49.1468 118.737 48.9175C118.77 48.6554 118.803 48.3933 118.835 48.1312C118.868 47.9018 118.884 47.6725 118.884 47.4431C118.917 47.181 118.934 46.9353 118.934 46.706C118.934 46.5422 118.917 46.3947 118.884 46.2637C118.852 46.1326 118.835 46.0016 118.835 45.8705C118.835 45.805 118.852 45.7559 118.884 45.7231C118.917 45.6576 118.934 45.592 118.934 45.5265C118.934 45.3627 118.95 45.2153 118.983 45.0842C119.048 44.9204 119.081 44.7566 119.081 44.5928C119.114 44.429 119.13 44.2979 119.13 44.1996C119.13 44.0686 119.147 43.9539 119.179 43.8556C119.179 43.659 119.097 43.4461 118.934 43.2167C118.901 43.1184 118.884 42.971 118.884 42.7744C118.884 42.5779 118.901 42.4468 118.934 42.3813C119.097 42.2502 119.163 42.0373 119.13 41.7424C119.13 41.7096 119.147 41.6605 119.179 41.595C119.212 41.5294 119.245 41.4639 119.278 41.3984C119.343 41.2673 119.441 41.1527 119.572 41.0544C119.704 40.9233 119.785 40.7595 119.818 40.5629C119.851 40.3008 119.884 40.0387 119.916 39.7766C119.982 39.5145 120.031 39.2524 120.064 38.9903C120.064 38.9248 120.064 38.8429 120.064 38.7446C120.064 38.6463 120.08 38.5316 120.113 38.4006C120.211 38.1713 120.26 37.9419 120.26 37.7126C120.26 37.4505 120.31 37.2047 120.408 36.9754C120.473 36.6805 120.523 36.3857 120.555 36.0908C120.588 35.7632 120.621 35.4356 120.654 35.1079L120.801 33.781C120.801 33.4534 120.834 33.2241 120.899 33.093C120.899 32.962 120.932 32.8309 120.998 32.6999C120.998 32.6016 120.998 32.5524 120.998 32.5524C120.899 32.3886 120.883 32.2412 120.949 32.1101C121.047 31.9791 121.112 31.848 121.145 31.717C121.211 31.6514 121.26 31.5859 121.293 31.5204C121.325 31.4221 121.358 31.3074 121.391 31.1764C121.456 31.1109 121.522 30.9798 121.587 30.7832H121.637V31.3238C121.604 31.4549 121.587 31.6187 121.587 31.8153C121.587 31.9791 121.571 32.1429 121.538 32.3067C121.538 32.3395 121.522 32.405 121.489 32.5033C121.489 32.5688 121.489 32.6343 121.489 32.6999C121.424 32.7326 121.391 32.7818 121.391 32.8473C121.358 32.9783 121.325 33.1258 121.293 33.2896C121.293 33.4206 121.293 33.5681 121.293 33.7319C121.293 33.8629 121.309 33.9612 121.342 34.0267H121.391C121.456 33.994 121.489 33.9776 121.489 33.9776C121.489 33.9448 121.505 33.9121 121.538 33.8793H121.637C121.637 33.9121 121.653 33.9612 121.686 34.0267C121.718 34.0595 121.735 34.1087 121.735 34.1742C121.702 34.338 121.669 34.5182 121.637 34.7148C121.604 34.8786 121.555 35.0424 121.489 35.2062C121.489 35.3045 121.489 35.4192 121.489 35.5502C121.489 35.6485 121.44 35.7468 121.342 35.8451C121.309 35.8779 121.26 35.9761 121.194 36.14C121.129 36.2055 121.129 36.2874 121.194 36.3857C121.227 36.3857 121.227 36.4184 121.194 36.484C121.194 36.5167 121.178 36.5331 121.145 36.5331C121.08 36.5659 121.03 36.615 120.998 36.6805C120.998 36.7461 120.998 36.8116 120.998 36.8771C120.998 36.9099 120.981 36.9426 120.949 36.9754C120.949 36.9754 120.949 36.9918 120.949 37.0246C120.817 37.1228 120.736 37.2539 120.703 37.4177C120.67 37.5815 120.654 37.7453 120.654 37.9092L120.506 38.5972C120.473 38.761 120.424 38.9576 120.359 39.1869C120.326 39.4162 120.277 39.6456 120.211 39.8749C120.179 40.1043 120.146 40.3172 120.113 40.5138C120.113 40.7104 120.113 40.9233 120.113 41.1527V41.3493C120.179 41.2837 120.228 41.251 120.26 41.251C120.293 41.2182 120.326 41.1854 120.359 41.1527C120.49 40.9889 120.686 40.9233 120.949 40.9561C121.014 40.9889 121.063 40.9725 121.096 40.907C121.129 40.8087 121.161 40.7431 121.194 40.7104C121.227 40.5138 121.243 40.3008 121.243 40.0715C121.243 39.8422 121.26 39.6128 121.293 39.3835C121.325 39.1214 121.358 38.892 121.391 38.6955C121.456 38.4989 121.505 38.2859 121.538 38.0566C121.538 37.9255 121.522 37.8109 121.489 37.7126C121.489 37.5815 121.505 37.4505 121.538 37.3194C121.571 37.2211 121.587 37.1392 121.587 37.0737C121.62 36.9754 121.637 36.8771 121.637 36.7788C121.604 36.5167 121.587 36.2546 121.587 35.9925C121.587 35.6977 121.637 35.4356 121.735 35.2062C121.8 35.0096 121.833 34.8131 121.833 34.6165C121.833 34.4199 121.849 34.2233 121.882 34.0267C121.882 33.9612 121.915 33.8629 121.981 33.7319C121.981 33.6664 121.981 33.6172 121.981 33.5844C122.013 33.5517 122.03 33.5189 122.03 33.4862C122.03 33.2241 122.03 32.9783 122.03 32.749C122.062 32.4869 122.046 32.2248 121.981 31.9627C121.948 31.7989 121.931 31.6514 121.931 31.5204C121.964 31.3893 121.997 31.2419 122.03 31.0781C122.128 30.9798 122.128 30.8815 122.03 30.7832C121.997 30.5211 121.849 30.4392 121.587 30.5375C121.62 30.4064 121.637 30.2918 121.637 30.1935C121.669 30.0952 121.702 29.9805 121.735 29.8495V28.8175C121.735 28.7847 121.735 28.7683 121.735 28.7683C121.768 28.7355 121.784 28.7028 121.784 28.67C121.849 28.3096 121.751 28.0639 121.489 27.9329C121.391 27.9329 121.342 27.8837 121.342 27.7854C121.243 27.5888 121.145 27.3923 121.047 27.1957C120.981 26.9991 120.899 26.8025 120.801 26.606C120.768 26.4421 120.736 26.2947 120.703 26.1637C120.703 26.0326 120.686 25.9016 120.654 25.7705C120.621 25.6722 120.588 25.5575 120.555 25.4265C120.523 25.2954 120.457 25.2135 120.359 25.1808C120.326 25.148 120.293 25.1152 120.26 25.0825C120.228 25.0497 120.195 25.0006 120.162 24.9351C120.129 24.7057 120.031 24.5091 119.867 24.3453C119.736 24.1815 119.589 24.0177 119.425 23.8539C119.425 23.8211 119.409 23.8047 119.376 23.8047C119.343 23.5099 119.196 23.2314 118.934 22.9693C118.934 22.8382 118.983 22.7563 119.081 22.7236C119.212 22.658 119.36 22.6253 119.523 22.6253C119.687 22.6253 119.835 22.6253 119.966 22.6253C120.129 22.6253 120.293 22.6089 120.457 22.5761C120.621 22.5434 120.785 22.5106 120.949 22.4778C121.014 22.4123 121.047 22.3468 121.047 22.2813C121.08 22.1502 121.129 22.0683 121.194 22.0355C121.293 21.97 121.391 21.9045 121.489 21.839C121.522 21.8062 121.604 21.7898 121.735 21.7898C121.899 21.8553 121.997 21.8062 122.03 21.6424C122.128 21.5441 122.259 21.5277 122.423 21.5932C122.488 21.6588 122.57 21.7243 122.669 21.7898C122.8 21.8226 122.898 21.8717 122.963 21.9372H123.946C124.208 21.8717 124.454 21.8553 124.683 21.8881C124.913 21.9209 125.175 21.97 125.47 22.0355V22.0847C125.732 22.0192 125.912 21.9864 126.01 21.9864C126.6 21.9864 127.141 21.9864 127.632 21.9864C128.156 21.9864 128.615 22.0028 129.008 22.0355C129.369 22.0683 129.729 22.1338 130.089 22.2321C130.483 22.2976 130.843 22.3632 131.171 22.4287L132.989 22.7236C133.218 22.7563 133.415 22.8055 133.579 22.871C133.775 22.9365 133.939 23.002 134.07 23.0676C134.299 23.1003 134.512 23.1331 134.709 23.1659C134.906 23.1986 135.102 23.2478 135.299 23.3133C135.528 23.3788 135.725 23.4607 135.888 23.559C136.085 23.6245 136.282 23.6901 136.478 23.7556C136.937 23.9194 137.314 24.0996 137.608 24.2962C137.739 24.3289 137.838 24.3945 137.903 24.4928C138.002 24.5583 138.116 24.6402 138.247 24.7385C138.346 24.804 138.46 24.8695 138.591 24.9351C138.755 25.0006 138.903 25.0825 139.034 25.1808C139.099 25.2791 139.181 25.3773 139.279 25.4756C139.378 25.5739 139.46 25.6558 139.525 25.7214C139.558 25.7541 139.574 25.7869 139.574 25.8196C139.836 25.9179 140.033 26.0654 140.164 26.2619C140.295 26.4585 140.426 26.6387 140.557 26.8025C140.819 27.1957 140.901 27.6707 140.803 28.2277V28.8175C140.803 29.2106 140.721 29.6038 140.557 29.9969C140.492 30.1935 140.426 30.3901 140.361 30.5866C140.328 30.7832 140.279 30.9634 140.213 31.1272C140.148 31.3238 140.049 31.504 139.918 31.6678C139.82 31.8316 139.738 31.9954 139.673 32.1593C139.574 32.2903 139.509 32.4377 139.476 32.6016C139.443 32.6671 139.394 32.749 139.328 32.8473C139.296 32.9456 139.247 33.0602 139.181 33.1913C139.116 33.3879 139.034 33.5845 138.935 33.781C138.837 33.9776 138.706 34.1578 138.542 34.3216C138.509 34.4199 138.444 34.5182 138.346 34.6165C138.28 34.682 138.215 34.7803 138.149 34.9113C137.985 35.1079 137.821 35.3209 137.658 35.5502C137.527 35.7796 137.379 36.0089 137.215 36.2382C137.117 36.4021 137.002 36.5495 136.871 36.6805C136.773 36.8116 136.658 36.9426 136.527 37.0737C136.363 37.2375 136.216 37.4013 136.085 37.5651C135.954 37.6962 135.839 37.8764 135.741 38.1057C135.643 38.1713 135.561 38.2368 135.495 38.3023C135.43 38.3678 135.364 38.4497 135.299 38.548C135.2 38.6791 135.053 38.8265 134.856 38.9903C134.66 39.2197 134.512 39.4654 134.414 39.7275C134.349 39.8913 134.234 39.9732 134.07 39.9732C133.873 39.9732 133.775 40.0551 133.775 40.2189V40.3664C133.742 40.4319 133.71 40.5138 133.677 40.6121C133.644 40.6776 133.644 40.7268 133.677 40.7595C133.775 40.825 133.873 40.8906 133.972 40.9561C134.07 41.0216 134.168 41.0708 134.267 41.1035C135.118 41.2346 135.97 41.4803 136.822 41.8407C136.92 41.8735 137.019 41.9062 137.117 41.939C137.215 41.939 137.314 41.9717 137.412 42.0373C137.51 42.1028 137.608 42.1683 137.707 42.2339C137.838 42.2666 137.936 42.3158 138.002 42.3813C138.198 42.5123 138.411 42.6434 138.64 42.7744C138.87 42.9055 139.05 43.0365 139.181 43.1676L139.82 43.9048C139.984 44.0358 140.115 44.1669 140.213 44.2979C140.344 44.429 140.475 44.56 140.606 44.6911C140.672 44.7566 140.721 44.8221 140.754 44.8876C140.819 45.0187 140.901 45.1661 140.999 45.3299C141.13 45.461 141.229 45.6084 141.294 45.7722C141.36 45.8705 141.36 45.9852 141.294 46.1163C141.229 46.3456 141.196 46.5913 141.196 46.8534C141.196 47.0828 141.212 47.3285 141.245 47.5906V47.7872C141.212 47.951 141.147 48.1148 141.049 48.2786C140.983 48.4424 140.917 48.6062 140.852 48.77C140.852 48.8683 140.836 48.9339 140.803 48.9666C140.803 49.2287 140.885 49.3762 141.049 49.4089C140.983 49.54 140.917 49.7038 140.852 49.9004C140.819 50.0969 140.77 50.3099 140.705 50.5392C140.672 50.6375 140.606 50.7358 140.508 50.8341C140.442 50.9324 140.377 51.0307 140.311 51.129C140.279 51.2273 140.213 51.3255 140.115 51.4238C140.017 51.4894 139.918 51.5877 139.82 51.7187C139.787 51.7515 139.754 51.8006 139.722 51.8661C139.722 51.9317 139.705 51.9972 139.673 52.0627C139.541 52.2593 139.378 52.4231 139.181 52.5542C139.116 52.718 139.017 52.8818 138.886 53.0456C138.755 53.2094 138.624 53.3896 138.493 53.5862C138.395 53.7172 138.28 53.8319 138.149 53.9302C138.051 53.9957 137.969 54.0776 137.903 54.1759C137.838 54.2414 137.756 54.307 137.658 54.3725C137.592 54.4053 137.527 54.4544 137.461 54.5199C137.395 54.5527 137.33 54.6018 137.264 54.6674C137.166 54.7001 137.101 54.7657 137.068 54.8639C136.839 54.9622 136.626 55.1097 136.429 55.3062C136.363 55.339 136.298 55.3718 136.232 55.4045C136.167 55.4373 136.101 55.4864 136.036 55.552C135.905 55.683 135.741 55.8141 135.544 55.9451C135.348 56.0434 135.151 56.1417 134.955 56.24C134.791 56.371 134.611 56.4857 134.414 56.584C134.217 56.6823 134.086 56.8461 134.021 57.0754H133.972C133.808 57.0754 133.677 57.141 133.579 57.272C133.513 57.3703 133.398 57.4358 133.235 57.4686V57.8617C133.038 57.7962 132.891 57.7962 132.792 57.8617C132.694 57.9273 132.596 57.9928 132.497 58.0583C132.399 58.2221 132.284 58.3368 132.153 58.4023C132.022 58.4679 131.875 58.5334 131.711 58.5989C131.482 58.6972 131.269 58.7791 131.072 58.8446C130.876 58.9102 130.695 58.9921 130.532 59.0904C130.466 59.0904 130.433 59.1231 130.433 59.1886C130.335 59.3525 130.204 59.4835 130.04 59.5818H129.942C129.909 59.5163 129.86 59.418 129.794 59.2869L129.598 59.5818C129.369 59.8111 129.09 59.8767 128.762 59.7784C128.73 59.7456 128.697 59.7292 128.664 59.7292C128.631 59.762 128.599 59.7784 128.566 59.7784C128.369 59.7784 128.173 59.7784 127.976 59.7784C127.78 59.7784 127.583 59.762 127.386 59.7292C127.321 59.7292 127.255 59.6965 127.19 59.6309C127.059 59.5654 126.862 59.4835 126.6 59.3852C126.371 59.2869 126.207 59.2542 126.109 59.2869C126.076 59.3197 126.027 59.3525 125.961 59.3852C125.928 59.4507 125.912 59.4999 125.912 59.5327C125.814 59.6309 125.732 59.6637 125.666 59.6309C125.503 59.5654 125.322 59.5654 125.126 59.6309C125.126 59.6309 125.077 59.6801 124.978 59.7784C124.978 59.8111 124.978 59.8439 124.978 59.8767C125.011 59.9094 125.027 59.9586 125.027 60.0241C124.962 60.1224 124.831 60.2371 124.634 60.3681C124.536 60.2698 124.438 60.2043 124.339 60.1715C124.274 60.106 124.192 60.0732 124.094 60.0732C124.028 59.8767 123.848 59.8111 123.553 59.8767L121.243 59.8275C121.178 59.7948 121.112 59.762 121.047 59.7292C120.981 59.7292 120.899 59.7128 120.801 59.6801C120.867 59.6146 120.899 59.5163 120.899 59.3852C120.899 59.2869 120.916 59.1886 120.949 59.0904C120.817 59.0576 120.686 59.0084 120.555 58.9429C120.457 58.9102 120.375 58.7955 120.31 58.5989C120.31 58.6317 120.277 58.6481 120.211 58.6481C120.179 58.7463 120.162 58.8446 120.162 58.9429C120.162 59.0412 120.146 59.1231 120.113 59.1886L119.916 58.5498C119.818 58.6481 119.753 58.7463 119.72 58.8446C119.589 58.6808 119.491 58.5334 119.425 58.4023C119.392 58.304 119.343 58.1894 119.278 58.0583C119.278 57.9928 119.261 57.9437 119.228 57.9109C119.228 57.8454 119.228 57.7962 119.228 57.7635L119.081 57.6652C119.048 57.6979 119.032 57.7307 119.032 57.7635C119.032 57.7635 118.999 57.7798 118.934 57.8126C118.934 57.9437 118.917 58.0747 118.884 58.2058C118.884 58.3368 118.868 58.4679 118.835 58.5989C118.671 58.5661 118.622 58.4515 118.688 58.2549C118.688 58.1238 118.671 58.0419 118.639 58.0092C118.606 57.9764 118.508 57.9764 118.344 58.0092C118.344 57.9109 118.393 57.7798 118.491 57.616C118.622 57.4522 118.524 57.3539 118.196 57.3212C118.131 56.9935 118.098 56.715 118.098 56.4857V56.3383C118.164 56.2727 118.213 56.2072 118.246 56.1417C118.278 56.0762 118.311 56.0106 118.344 55.9451C118.409 56.0106 118.475 56.0925 118.54 56.1908C118.606 56.2891 118.655 56.3874 118.688 56.4857L118.934 56.0434C119.065 55.9124 119.097 55.7649 119.032 55.6011V55.4537C119.097 55.3554 119.163 55.2571 119.228 55.1588C119.294 55.0605 119.36 54.9786 119.425 54.9131C119.523 54.8476 119.589 54.782 119.622 54.7165C119.654 54.651 119.687 54.5527 119.72 54.4216C119.753 54.2578 119.785 54.094 119.818 53.9302C119.851 53.7664 119.884 53.5862 119.916 53.3896H119.72ZM126.895 54.4216L126.944 54.3725C127.01 54.438 127.042 54.5363 127.042 54.6674C127.173 54.995 127.255 55.1916 127.288 55.2571C127.386 55.3226 127.501 55.3718 127.632 55.4045C127.763 55.4045 127.894 55.4373 128.025 55.5028C128.189 55.5356 128.337 55.5192 128.468 55.4537C128.599 55.3881 128.779 55.3226 129.008 55.2571C129.205 55.1588 129.434 55.0769 129.696 55.0114C129.958 54.9458 130.204 54.8967 130.433 54.8639C130.663 54.7657 130.777 54.6837 130.777 54.6182C130.81 54.5527 130.794 54.438 130.728 54.2742C130.728 54.1759 130.745 54.094 130.777 54.0285C130.81 53.963 130.908 53.9302 131.072 53.9302C131.138 53.9302 131.203 53.8974 131.269 53.8319C131.334 53.7664 131.383 53.7172 131.416 53.6845C131.744 53.5862 132.006 53.4551 132.203 53.2913C132.268 53.193 132.317 53.1111 132.35 53.0456C132.416 52.9801 132.481 52.9309 132.547 52.8982C132.678 52.7344 132.743 52.5542 132.743 52.3576C132.743 52.2265 132.776 52.1446 132.841 52.1119C132.94 52.0463 133.054 51.948 133.185 51.817C133.349 51.6859 133.497 51.5877 133.628 51.5221C133.693 51.4238 133.775 51.3255 133.873 51.2273C134.005 51.129 134.103 51.0143 134.168 50.8833C134.234 50.7194 134.283 50.5229 134.316 50.2935C134.349 50.0642 134.381 49.8512 134.414 49.6546C134.545 49.4581 134.578 49.2779 134.512 49.1141C134.316 48.8847 134.349 48.7209 134.611 48.6226C134.611 48.5898 134.611 48.5735 134.611 48.5735C134.643 48.5735 134.66 48.5735 134.66 48.5735C134.922 48.1803 135.151 47.8199 135.348 47.4923C135.544 47.1319 135.675 46.706 135.741 46.2145C135.774 46.149 135.806 46.0671 135.839 45.9688C135.872 45.8705 135.888 45.7722 135.888 45.674C135.954 45.4119 135.987 45.1334 135.987 44.8385C135.987 44.8385 135.97 44.8221 135.938 44.7894C135.938 44.7566 135.921 44.7402 135.888 44.7402C135.626 44.6419 135.364 44.5273 135.102 44.3962C134.84 44.2651 134.545 44.216 134.217 44.2488C134.152 44.2815 134.086 44.2979 134.021 44.2979C133.988 44.2651 133.939 44.2488 133.873 44.2488C133.742 44.1832 133.628 44.1505 133.529 44.1505L132.596 44.2979C132.334 44.3307 132.104 44.3471 131.908 44.3471C131.711 44.3471 131.482 44.3471 131.22 44.3471C130.892 44.3798 130.614 44.3962 130.384 44.3962C130.155 44.3962 129.893 44.4781 129.598 44.6419C129.467 44.6747 129.303 44.6911 129.106 44.6911C128.746 44.6911 128.435 44.7894 128.173 44.9859C127.911 45.2153 127.649 45.4118 127.386 45.5757C127.157 45.7395 126.911 45.9361 126.649 46.1654C126.551 46.2637 126.502 46.3128 126.502 46.3128C126.305 46.3128 126.191 46.3784 126.158 46.5094C126.158 46.6405 126.141 46.7879 126.109 46.9517V47.2957C126.01 47.2302 125.961 47.1647 125.961 47.0991C125.961 46.8043 125.863 46.6896 125.666 46.7551C125.601 46.7879 125.535 46.8207 125.47 46.8534C125.437 46.8862 125.388 46.9189 125.322 46.9517C125.093 47.0828 124.946 47.1974 124.88 47.2957C124.815 47.394 124.782 47.5578 124.782 47.7872C124.815 47.951 124.831 48.1476 124.831 48.3769C124.831 48.5079 124.831 48.6226 124.831 48.7209C124.831 48.8192 124.798 48.9502 124.733 49.1141C124.7 49.2123 124.7 49.3434 124.733 49.5072C124.765 49.6383 124.782 49.7857 124.782 49.9495C124.815 50.3099 124.815 50.6703 124.782 51.0307C124.782 51.3583 124.798 51.7023 124.831 52.0627C124.831 52.161 124.847 52.2593 124.88 52.3576C124.946 52.4559 124.995 52.5869 125.027 52.7507C125.027 52.7835 125.044 52.8163 125.077 52.849C125.142 52.849 125.191 52.8326 125.224 52.7999C125.29 52.7999 125.355 52.7835 125.421 52.7507C125.519 52.718 125.617 52.7016 125.716 52.7016C125.814 52.6361 125.912 52.6361 126.01 52.7016C126.109 52.7016 126.158 52.7835 126.158 52.9473L126.109 53.1439C126.141 53.3405 126.24 53.4715 126.404 53.537C126.404 53.537 126.42 53.537 126.453 53.537C126.518 53.537 126.567 53.5207 126.6 53.4879C126.633 53.5207 126.649 53.5698 126.649 53.6353C126.682 53.6681 126.715 53.7664 126.748 53.9302C126.616 53.9302 126.551 53.9793 126.551 54.0776C126.551 54.1432 126.535 54.2087 126.502 54.2742C126.469 54.307 126.404 54.3397 126.305 54.3725C126.207 54.3725 126.141 54.4053 126.109 54.4708C125.978 54.7001 126.076 54.8476 126.404 54.9131L126.748 55.0605C126.911 54.9295 126.961 54.7165 126.895 54.4216ZM126.109 39.5309C126.109 39.4981 126.092 39.4818 126.06 39.4818C126.06 39.4818 126.06 39.4654 126.06 39.4326C126.158 38.7446 126.305 37.9911 126.502 37.172C126.502 37.0737 126.502 36.959 126.502 36.828C126.535 36.6969 126.551 36.5659 126.551 36.4348C126.584 36.3038 126.616 36.1563 126.649 35.9925C126.682 35.8287 126.698 35.6813 126.698 35.5502C126.698 35.2881 126.584 35.2226 126.354 35.3536C126.322 35.3536 126.256 35.4028 126.158 35.5011C126.125 35.5994 126.06 35.7304 125.961 35.8942C125.896 36.0253 125.83 36.14 125.765 36.2382L125.617 36.828C125.584 36.8935 125.552 36.9426 125.519 36.9754C125.519 37.0082 125.519 37.0409 125.519 37.0737C125.453 37.2047 125.355 37.3194 125.224 37.4177C125.093 37.516 125.044 37.647 125.077 37.8109C125.109 38.0074 125.175 38.2204 125.273 38.4497C125.372 38.6791 125.322 38.9084 125.126 39.1378C125.093 39.236 125.126 39.3343 125.224 39.4326C125.29 39.3999 125.339 39.3835 125.372 39.3835C125.437 39.3507 125.47 39.3343 125.47 39.3343H125.519C125.486 39.3999 125.47 39.4654 125.47 39.5309C125.47 39.5637 125.437 39.6128 125.372 39.6783C125.208 39.6783 125.126 39.6456 125.126 39.5801C125.06 39.7111 125.027 39.8258 125.027 39.9241C125.027 40.0879 125.011 40.2517 124.978 40.4155C124.978 40.5466 124.995 40.6776 125.027 40.8087C125.093 40.9725 125.126 41.1035 125.126 41.2018C125.159 41.3001 125.109 41.3984 124.978 41.4967C124.847 41.7588 124.815 41.939 124.88 42.0373C124.978 42.1683 125.191 42.2011 125.519 42.1356C125.552 42.1028 125.617 42.0864 125.716 42.0864C125.978 42.1519 126.125 42.07 126.158 41.8407C126.223 41.6769 126.272 41.5294 126.305 41.3984C126.371 41.2346 126.42 41.0871 126.453 40.9561V40.7595C126.387 40.6612 126.469 40.5302 126.698 40.3664C126.6 40.7595 126.551 41.1035 126.551 41.3984C126.551 41.4639 126.567 41.5131 126.6 41.5458C126.666 41.5786 126.731 41.6277 126.797 41.6933C126.862 41.726 126.961 41.7752 127.092 41.8407L127.141 41.5458C127.108 41.4148 127.141 41.3001 127.239 41.2018C127.337 41.0708 127.403 40.9397 127.436 40.8087C127.501 40.7104 127.583 40.6285 127.681 40.5629C127.812 40.4647 127.927 40.3664 128.025 40.2681C128.255 40.1698 128.386 40.0715 128.418 39.9732C128.484 39.8094 128.533 39.662 128.566 39.5309C128.631 39.3671 128.697 39.2033 128.762 39.0395C128.861 38.9084 128.943 38.7774 129.008 38.6463C129.106 38.5153 129.221 38.3842 129.352 38.2532C129.614 37.9911 129.926 37.7126 130.286 37.4177C130.679 37.1228 131.039 36.8116 131.367 36.484C131.433 36.4184 131.498 36.3529 131.564 36.2874C131.629 36.1891 131.728 36.0908 131.859 35.9925C131.891 35.927 131.908 35.8451 131.908 35.7468C131.94 35.6485 131.973 35.583 132.006 35.5502C132.17 35.4847 132.284 35.4028 132.35 35.3045C132.416 35.2062 132.514 35.1079 132.645 35.0096C132.776 34.7803 132.923 34.5837 133.087 34.4199C133.284 34.2233 133.431 33.994 133.529 33.7319C133.792 33.4043 133.988 33.093 134.119 32.7981C134.25 32.5033 134.398 32.192 134.561 31.8644C134.824 31.4712 135.004 31.0781 135.102 30.6849C135.233 30.259 135.364 29.8331 135.495 29.4072C135.528 29.2761 135.561 29.1451 135.594 29.014C135.626 28.883 135.659 28.7519 135.692 28.6209C135.79 28.3588 135.659 28.2113 135.299 28.1786C134.349 27.982 133.251 27.8346 132.006 27.7363C131.023 27.638 130.171 27.5888 129.45 27.5888C129.156 27.2285 128.894 27.1465 128.664 27.3431C128.468 27.5397 128.386 27.8018 128.418 28.1294C128.517 28.4571 128.386 28.6864 128.025 28.8175C127.894 28.8502 127.747 28.8011 127.583 28.67C127.583 28.6045 127.583 28.5717 127.583 28.5717C127.583 28.539 127.583 28.5062 127.583 28.4734H127.534C127.501 28.5062 127.468 28.5553 127.436 28.6209C127.403 28.6864 127.37 28.7683 127.337 28.8666C127.239 28.9976 127.141 29.1615 127.042 29.358C126.977 29.5546 126.911 29.7348 126.846 29.8986C126.813 30.0952 126.764 30.2918 126.698 30.4884C126.666 30.6522 126.584 30.7996 126.453 30.9307C126.387 31.16 126.354 31.3074 126.354 31.373C126.387 31.4057 126.518 31.4549 126.748 31.5204C126.485 31.6514 126.371 31.8316 126.404 32.061C126.469 32.2903 126.404 32.5033 126.207 32.6999C126.207 32.536 126.191 32.4214 126.158 32.3558C126.158 32.2576 126.158 32.1429 126.158 32.0118H126.109C126.076 32.2084 126.043 32.3231 126.01 32.3558C126.01 32.4869 125.978 32.6835 125.912 32.9456C125.847 33.1094 125.912 33.306 126.109 33.5353C126.338 33.7319 126.977 33.9285 128.025 34.125C127.894 34.3216 127.894 34.4854 128.025 34.6165C128.255 34.7475 128.255 34.8786 128.025 35.0096C127.829 34.8786 127.714 34.9113 127.681 35.1079C127.649 35.1735 127.616 35.2554 127.583 35.3536C127.583 35.4192 127.567 35.4847 127.534 35.5502C127.501 35.583 127.468 35.6157 127.436 35.6485C127.436 35.6813 127.436 35.6977 127.436 35.6977C127.239 35.7959 127.141 35.9434 127.141 36.14C127.108 36.3365 127.026 36.5495 126.895 36.7788C126.862 36.9099 126.829 37.0409 126.797 37.172C126.797 37.2703 126.764 37.4013 126.698 37.5651C126.698 37.5979 126.715 37.647 126.748 37.7126C126.78 37.7453 126.764 37.7781 126.698 37.8109C126.666 37.9747 126.6 38.1385 126.502 38.3023C126.436 38.4334 126.371 38.5808 126.305 38.7446C126.272 38.8757 126.24 39.0067 126.207 39.1378C126.174 39.2688 126.141 39.3999 126.109 39.5309ZM118.295 54.8639C118.36 54.7984 118.393 54.7329 118.393 54.6674C118.426 54.5691 118.442 54.5035 118.442 54.4708C118.508 54.4053 118.54 54.3725 118.54 54.3725C118.54 54.3397 118.557 54.307 118.59 54.2742C118.622 54.2742 118.639 54.2906 118.639 54.3234C118.606 54.5199 118.573 54.7165 118.54 54.9131C118.54 55.0769 118.508 55.2571 118.442 55.4537C118.311 55.3554 118.246 55.2571 118.246 55.1588C118.246 55.0278 118.262 54.9295 118.295 54.8639ZM124.929 33.3879C124.995 33.3223 125.06 33.2568 125.126 33.1913C125.191 33.093 125.24 32.9783 125.273 32.8473C125.404 32.6835 125.47 32.5524 125.47 32.4541C125.47 32.3558 125.388 32.2084 125.224 32.0118C125.159 32.0774 125.109 32.1429 125.077 32.2084C125.044 32.2412 124.995 32.2903 124.929 32.3558C124.831 32.3886 124.815 32.4869 124.88 32.6507C124.88 32.7162 124.88 32.7818 124.88 32.8473C124.913 32.9128 124.929 33.0111 124.929 33.1422V33.3879ZM120.457 50.9815C120.523 51.0143 120.555 51.0471 120.555 51.0798C120.588 51.0798 120.621 51.0962 120.654 51.129C120.654 51.129 120.67 51.129 120.703 51.129C120.736 51.129 120.752 51.129 120.752 51.129V50.8833C120.719 50.8833 120.67 50.8833 120.605 50.8833C120.572 50.8833 120.523 50.8833 120.457 50.8833V50.9815ZM125.224 58.5006C125.224 58.4023 125.273 58.3204 125.372 58.2549C125.503 58.2221 125.519 58.1402 125.421 58.0092C125.322 58.0419 125.224 58.0747 125.126 58.1075C125.06 58.173 124.995 58.2221 124.929 58.2549L125.224 58.5006ZM122.03 39.4326C121.931 39.5964 121.931 39.793 122.03 40.0224C122.226 39.7275 122.226 39.5309 122.03 39.4326ZM124.389 56.3383L124.339 56.3874C124.372 56.4202 124.389 56.4693 124.389 56.5348C124.389 56.6004 124.405 56.6659 124.438 56.7314C124.503 56.7314 124.536 56.7314 124.536 56.7314C124.536 56.7314 124.552 56.7314 124.585 56.7314V56.4366C124.552 56.4038 124.52 56.3874 124.487 56.3874C124.454 56.3874 124.421 56.371 124.389 56.3383ZM129.549 21.5441C129.418 21.4786 129.369 21.3803 129.401 21.2492C129.467 21.0854 129.45 20.9544 129.352 20.8561C129.385 20.8561 129.401 20.8397 129.401 20.8069C129.565 20.8397 129.696 20.8725 129.794 20.9052C129.926 20.938 130.057 20.9707 130.188 21.0035C130.089 21.1346 129.975 21.2492 129.844 21.3475C129.745 21.413 129.647 21.4786 129.549 21.5441ZM125.716 49.2615C125.65 49.196 125.568 49.1468 125.47 49.1141C125.404 49.0813 125.355 49.0485 125.322 49.0158C125.224 48.7864 125.273 48.5407 125.47 48.2786C125.568 48.3441 125.65 48.4916 125.716 48.7209C125.781 48.9502 125.781 49.1304 125.716 49.2615ZM125.47 51.5221C125.47 51.6532 125.453 51.7678 125.421 51.8661C125.421 51.9317 125.421 52.0136 125.421 52.1119C125.322 52.1119 125.257 52.0955 125.224 52.0627C125.224 52.03 125.224 52.0136 125.224 52.0136C125.257 51.9808 125.273 51.948 125.273 51.9153C125.306 51.8825 125.322 51.817 125.322 51.7187C125.355 51.6859 125.372 51.6204 125.372 51.5221H125.47ZM125.568 50.5392C125.535 50.6048 125.503 50.6703 125.47 50.7358C125.47 50.8013 125.453 50.8669 125.421 50.9324C125.388 50.8996 125.355 50.8833 125.322 50.8833C125.388 50.7522 125.421 50.6375 125.421 50.5392H125.568ZM126.551 33.5844C126.649 33.3551 126.715 33.1258 126.748 32.8964C126.944 33.1913 126.879 33.4206 126.551 33.5844ZM170.453 62.1864C170.322 61.9571 170.208 61.7278 170.109 61.4984C170.011 61.2691 169.946 61.0397 169.913 60.8104C169.88 60.5483 169.798 60.3517 169.667 60.2207C169.569 60.1224 169.454 60.0241 169.323 59.9258C169.094 59.8603 169.028 59.762 169.126 59.6309C168.864 59.5654 168.635 59.4835 168.438 59.3852C168.242 59.2869 168.062 59.074 167.898 58.7463C167.8 58.4515 167.685 58.1894 167.554 57.96C167.456 57.7307 167.374 57.485 167.308 57.2229L167.112 56.928C167.079 56.9608 167.03 56.9935 166.964 57.0263C166.931 57.0591 166.899 57.0918 166.866 57.1246C166.702 57.2884 166.587 57.4194 166.522 57.5177C166.489 57.5505 166.456 57.5996 166.424 57.6652C166.424 57.7307 166.407 57.7962 166.374 57.8617C166.342 57.8617 166.309 57.8617 166.276 57.8617C166.243 57.829 166.194 57.8126 166.129 57.8126C166.063 57.9437 165.998 58.0747 165.932 58.2058C165.867 58.3368 165.768 58.5006 165.637 58.6972C165.604 58.73 165.588 58.7791 165.588 58.8446C165.359 58.9102 165.211 59.1395 165.146 59.5327C165.179 59.5982 165.179 59.6965 165.146 59.8275C165.113 59.9586 165.097 60.0732 165.097 60.1715C164.998 60.4664 164.916 60.6302 164.851 60.663C164.818 60.6957 164.736 60.5974 164.605 60.3681C164.572 60.3026 164.556 60.2371 164.556 60.1715C164.556 60.106 164.523 60.0241 164.458 59.9258C164.523 59.9258 164.589 59.9094 164.654 59.8767C164.753 59.8767 164.851 59.9258 164.949 60.0241C164.982 60.0569 164.998 60.0732 164.998 60.0732L164.949 60.0241C164.949 59.9913 164.933 59.9586 164.9 59.9258C164.9 59.9258 164.9 59.9094 164.9 59.8767V59.3361C165.031 59.3361 165.097 59.1886 165.097 58.8938C165.129 58.73 165.146 58.5498 165.146 58.3532C165.179 58.1566 165.26 57.9928 165.391 57.8617C165.424 57.8945 165.457 57.9109 165.49 57.9109C165.523 57.9437 165.555 57.9928 165.588 58.0583C165.85 57.829 165.867 57.5177 165.637 57.1246L165.49 56.6331C165.555 56.6987 165.621 56.7314 165.686 56.7314C165.654 56.6659 165.637 56.6004 165.637 56.5348C165.637 56.4693 165.604 56.3874 165.539 56.2891C165.506 56.1581 165.473 56.027 165.441 55.896C165.408 55.7322 165.408 55.5847 165.441 55.4537V55.2571C165.375 55.0933 165.293 54.9622 165.195 54.8639C165.129 54.7657 165.097 54.651 165.097 54.5199C165.064 54.5199 165.031 54.5199 164.998 54.5199C164.966 54.5199 164.933 54.5199 164.9 54.5199V54.5691C164.867 54.438 164.835 54.3234 164.802 54.2251C164.802 54.094 164.769 53.963 164.703 53.8319L164.654 53.5862C164.622 53.4551 164.589 53.3405 164.556 53.2422C164.556 53.1439 164.54 53.0456 164.507 52.9473C164.441 52.7835 164.392 52.6361 164.359 52.505C164.327 52.3412 164.278 52.1446 164.212 51.9153C164.179 51.6532 164.13 51.4238 164.065 51.2273C163.999 50.9979 163.934 50.7522 163.868 50.4901C163.835 50.5884 163.77 50.7194 163.671 50.8833C163.639 50.785 163.59 50.6867 163.524 50.5884C163.491 50.4901 163.442 50.3754 163.377 50.2444C163.344 50.3754 163.311 50.5229 163.278 50.6867C163.246 50.8177 163.147 50.8833 162.983 50.8833C163.016 50.9815 163.033 51.0798 163.033 51.1781C163.033 51.2764 163.033 51.3583 163.033 51.4238C162.836 51.2273 162.738 51.0962 162.738 51.0307C162.738 51.0634 162.705 51.0798 162.639 51.0798C162.705 51.1781 162.738 51.2928 162.738 51.4238C162.738 51.5221 162.754 51.6204 162.787 51.7187C162.82 51.6204 162.902 51.5221 163.033 51.4238V51.7678C162.902 51.9972 162.803 51.9972 162.738 51.7678H162.59C162.525 51.4402 162.459 51.0962 162.394 50.7358C162.361 50.3754 162.312 50.015 162.246 49.6546C162.213 49.6546 162.197 49.6546 162.197 49.6546L162.05 50.441C161.951 50.3754 161.886 50.2608 161.853 50.0969C161.853 49.9331 161.853 49.7857 161.853 49.6546C161.788 49.1304 161.657 48.6062 161.46 48.082L161.263 47.6889C161.231 47.5906 161.214 47.4923 161.214 47.394C161.214 47.263 161.198 47.1483 161.165 47.05L161.411 47.1974C161.378 46.837 161.313 46.6077 161.214 46.5094C161.149 46.3784 160.968 46.3292 160.674 46.362C160.772 46.2637 160.821 46.149 160.821 46.018C160.854 45.8541 160.952 45.7067 161.116 45.5757C161.116 45.5757 161.116 45.5429 161.116 45.4774C161.116 45.3791 161.1 45.3299 161.067 45.3299C160.936 45.2317 160.821 45.1334 160.723 45.0351C160.624 44.9368 160.493 44.9204 160.33 44.9859C160.133 45.0187 159.871 45.0351 159.543 45.0351C159.248 45.0023 158.708 45.0515 157.922 45.1825C157.889 45.2153 157.823 45.2317 157.725 45.2317C157.659 45.1989 157.594 45.1825 157.528 45.1825C156.513 45.2153 155.677 45.2808 155.022 45.3791C154.4 45.4446 153.826 45.5101 153.302 45.5757C153.302 45.674 153.302 45.7722 153.302 45.8705C153.302 45.9688 153.22 46.0343 153.056 46.0671C153.024 46.0671 152.991 46.1163 152.958 46.2145C152.925 46.3128 152.909 46.362 152.909 46.362C152.909 46.6241 153.056 46.706 153.351 46.6077C153.384 46.6077 153.433 46.6405 153.499 46.706C153.564 46.7387 153.662 46.7879 153.793 46.8534C153.892 46.8534 153.974 46.8207 154.039 46.7551C154.137 46.6568 154.252 46.6732 154.383 46.8043C154.514 46.6732 154.596 46.5422 154.629 46.4111C154.858 46.4766 154.989 46.6405 155.022 46.9026C154.629 46.9353 154.219 47.0008 153.793 47.0991C153.4 47.1647 152.991 47.2302 152.565 47.2957V47.8854C152.434 47.9182 152.335 48.0165 152.27 48.1803C152.204 48.3441 152.106 48.5243 151.975 48.7209C151.942 48.852 151.893 48.983 151.828 49.1141C151.795 49.2123 151.729 49.327 151.631 49.4581C151.631 49.4908 151.615 49.5072 151.582 49.5072C151.582 49.5072 151.582 49.54 151.582 49.6055C151.451 50.0642 151.303 50.5065 151.14 50.9324C151.009 51.3255 150.91 51.7515 150.845 52.2101C150.714 52.8982 150.566 53.6026 150.402 54.3234C150.239 55.0441 150.058 55.7977 149.862 56.584C149.829 56.6168 149.829 56.6823 149.862 56.7806C149.862 57.1082 149.813 57.4031 149.714 57.6652C149.616 57.9273 149.518 58.2221 149.42 58.5498C149.42 58.5825 149.37 58.6481 149.272 58.7463C149.207 58.8446 149.108 58.9593 148.977 59.0904C148.879 59.2214 148.781 59.3688 148.682 59.5327C148.584 59.5327 148.502 59.5163 148.437 59.4835C148.371 59.4835 148.306 59.4835 148.24 59.4835C148.076 59.1886 148.044 58.8938 148.142 58.5989L148.584 55.9451C148.453 56.1089 148.306 56.24 148.142 56.3383C148.011 56.4366 147.929 56.6168 147.896 56.8789C147.896 56.9444 147.88 57.0099 147.847 57.0754C147.847 57.141 147.88 57.2229 147.945 57.3212C147.978 57.5177 147.929 57.6324 147.798 57.6652C147.601 57.3703 147.372 57.272 147.11 57.3703C146.782 57.3703 146.618 57.2065 146.618 56.8789C146.586 56.8133 146.569 56.7642 146.569 56.7314C146.569 56.6987 146.536 56.6495 146.471 56.584C146.34 56.6495 146.258 56.7478 146.225 56.8789C146.192 57.0099 146.143 57.1573 146.078 57.3212C145.947 57.6488 145.832 57.9928 145.734 58.3532C145.635 58.7463 145.537 59.1231 145.439 59.4835C145.439 59.4835 145.423 59.4835 145.39 59.4835C145.357 59.4835 145.324 59.5163 145.291 59.5818C145.193 59.2542 145.079 58.9757 144.947 58.7463C144.849 58.5498 144.653 58.4842 144.358 58.5498C144.423 58.0583 144.489 57.6979 144.554 57.4686C144.62 57.3048 144.669 57.141 144.702 56.9771C144.734 56.7806 144.767 56.6168 144.8 56.4857C144.931 55.896 145.079 55.2899 145.242 54.6674C145.439 54.0121 145.619 53.3896 145.783 52.7999C145.881 52.4723 145.996 52.161 146.127 51.8661C146.258 51.5385 146.34 51.2273 146.373 50.9324C146.471 50.4737 146.618 50.0642 146.815 49.7038C146.88 49.54 146.848 49.3762 146.717 49.2123V49.0158C146.749 48.983 146.782 48.9666 146.815 48.9666C146.979 48.9339 147.077 48.9011 147.11 48.8683C147.143 48.8356 147.159 48.7209 147.159 48.5243C147.159 48.3277 147.208 48.1967 147.306 48.1312C147.339 48.1312 147.405 48.082 147.503 47.9837C147.667 47.6889 147.798 47.4104 147.896 47.1483C147.994 46.8862 148.109 46.6077 148.24 46.3128C148.24 46.2473 148.224 46.1654 148.191 46.0671C148.158 45.9688 148.076 45.9033 147.945 45.8705C147.88 45.805 147.798 45.7395 147.7 45.674C147.601 45.6084 147.47 45.5757 147.306 45.5757C146.88 45.7067 146.422 45.805 145.93 45.8705C145.439 45.9033 144.98 45.9197 144.554 45.9197C144.423 45.9524 144.276 45.9688 144.112 45.9688C143.981 45.9688 143.834 45.9688 143.67 45.9688C143.637 45.9361 143.604 45.9197 143.571 45.9197C143.539 45.8869 143.506 45.8378 143.473 45.7722C143.637 45.7067 143.834 45.592 144.063 45.4282C144.292 45.2644 144.505 45.1661 144.702 45.1334C145.128 45.0678 145.537 44.9859 145.93 44.8876C146.356 44.7894 146.766 44.6911 147.159 44.5928C147.487 44.429 147.781 44.3307 148.044 44.2979C148.338 44.2324 148.633 44.1669 148.928 44.1013C149.026 44.0686 149.125 44.0358 149.223 44.003C149.321 43.9703 149.387 43.8884 149.42 43.7573C149.551 43.3642 149.731 43.0038 149.96 42.6762C150.222 42.3158 150.435 41.9554 150.599 41.595C150.665 41.5622 150.697 41.5294 150.697 41.4967C150.697 41.4312 150.697 41.3984 150.697 41.3984C150.73 41.1363 150.796 40.9233 150.894 40.7595C150.992 40.5957 151.09 40.4483 151.189 40.3172C151.32 39.9568 151.5 39.5801 151.729 39.1869C152.254 38.3678 152.761 37.4996 153.253 36.5823C153.417 36.3529 153.548 36.14 153.646 35.9434C153.744 35.714 153.859 35.4847 153.99 35.2554V34.9605C153.957 34.8294 153.974 34.6984 154.039 34.5673C154.105 34.4363 154.154 34.3216 154.187 34.2233C154.416 33.7974 154.662 33.3551 154.924 32.8964C155.186 32.4378 155.432 31.9791 155.661 31.5204C155.726 31.3893 155.825 31.1928 155.956 30.9307C156.12 30.6686 156.529 29.9969 157.184 28.9157C157.25 28.8502 157.266 28.7192 157.234 28.5226C157.07 28.2605 156.906 27.982 156.742 27.6871C156.578 27.3595 156.398 27.0155 156.202 26.6551C156.169 26.5896 156.054 26.5241 155.857 26.4585C155.694 26.2619 155.497 26.2456 155.268 26.4094C155.202 26.4421 155.137 26.4749 155.071 26.5077C155.006 26.5077 154.94 26.5404 154.875 26.606C154.94 26.4094 155.006 26.2292 155.071 26.0654C155.169 25.8688 155.186 25.6558 155.12 25.4265C155.251 25.3937 155.399 25.3773 155.563 25.3773C155.923 25.2791 155.972 25.0497 155.71 24.6893C155.972 24.6893 156.169 24.6074 156.3 24.4436C156.431 24.2798 156.562 24.116 156.693 23.9522H157.135C157.135 23.8866 157.135 23.8211 157.135 23.7556C157.135 23.6573 157.135 23.5754 157.135 23.5099L157.479 23.4607C157.938 23.3624 158.266 23.1659 158.462 22.871C158.495 22.7727 158.528 22.7072 158.56 22.6744C158.593 22.6416 158.626 22.6089 158.659 22.5761C158.724 22.6089 158.806 22.658 158.904 22.7236C159.035 22.7891 159.183 22.7727 159.347 22.6744C159.412 22.6416 159.478 22.658 159.543 22.7236C159.609 22.7891 159.674 22.8546 159.74 22.9201C159.838 23.0184 159.986 23.0512 160.182 23.0184C160.149 22.9529 160.133 22.871 160.133 22.7727C160.166 22.6744 160.182 22.6089 160.182 22.5761C160.117 22.5106 160.035 22.4778 159.936 22.4778C159.838 22.4778 159.756 22.4615 159.691 22.4287C159.658 22.3304 159.642 22.183 159.642 21.9864C159.805 21.9209 159.936 21.8717 160.035 21.839C160.133 21.8062 160.215 21.7571 160.28 21.6915C160.346 21.6588 160.412 21.6588 160.477 21.6915C160.543 21.6915 160.592 21.6915 160.624 21.6915C160.919 21.8226 161.1 21.9045 161.165 21.9372C161.263 21.9372 161.411 21.8717 161.607 21.7407C161.771 21.8062 161.853 21.9045 161.853 22.0355L162.05 21.5441C162.181 21.413 162.279 21.2984 162.345 21.2001C162.345 21.2656 162.345 21.3148 162.345 21.3475C162.377 21.3803 162.41 21.4294 162.443 21.4949C162.443 21.4949 162.476 21.5605 162.541 21.6915C162.607 22.0519 162.721 22.3468 162.885 22.5761C163.049 22.8055 163.246 23.002 163.475 23.1659C163.802 23.3952 164.015 23.6737 164.114 24.0013C164.146 24.1324 164.179 24.2798 164.212 24.4436C164.245 24.5747 164.261 24.6893 164.261 24.7876C164.327 25.3446 164.409 26.0326 164.507 26.8517C164.638 27.6707 165.015 28.3915 165.637 29.014C165.637 29.1451 165.654 29.227 165.686 29.2598C165.785 29.4236 165.834 29.5874 165.834 29.7512C165.834 29.8822 165.85 30.0133 165.883 30.1443C165.916 30.603 165.932 31.0453 165.932 31.4712C165.965 31.8644 166.014 32.2903 166.08 32.749V33.3879C166.145 33.8138 166.178 34.2561 166.178 34.7148C166.211 35.1734 166.243 35.6157 166.276 36.0417C166.342 36.2382 166.358 36.4512 166.325 36.6805C166.325 36.8771 166.325 37.0901 166.325 37.3194H166.08C166.112 37.516 166.129 37.729 166.129 37.9583C166.161 38.1549 166.178 38.3678 166.178 38.5972C166.178 38.7937 166.194 38.9903 166.227 39.1869C166.26 39.3835 166.292 39.5637 166.325 39.7275C166.358 39.8585 166.374 40.0224 166.374 40.2189C166.407 40.3827 166.456 40.5466 166.522 40.7104C166.522 40.8742 166.538 41.0708 166.571 41.3001C166.604 41.4967 166.636 41.7096 166.669 41.939C166.702 42.1683 166.751 42.414 166.817 42.6762C166.882 42.9055 166.931 43.1348 166.964 43.3642V44.1013C167.03 44.1996 167.079 44.3307 167.112 44.4945C167.177 44.6255 167.226 44.7402 167.259 44.8385C167.324 45.0678 167.374 45.3299 167.406 45.6248C167.439 45.8869 167.472 46.149 167.505 46.4111C167.57 46.7715 167.636 47.1155 167.701 47.4431C167.8 47.738 167.865 48.0656 167.898 48.426C167.963 48.6554 168.013 48.8847 168.045 49.1141C168.078 49.3106 168.16 49.54 168.291 49.8021L168.438 50.2935C168.373 50.359 168.373 50.5556 168.438 50.8833C168.504 50.9815 168.537 51.0798 168.537 51.1781C168.569 51.2764 168.684 51.2928 168.881 51.2273C169.045 51.7187 169.208 52.2101 169.372 52.7016C169.569 53.193 169.765 53.6681 169.962 54.1268C170.093 54.4544 170.208 54.782 170.306 55.1097C170.437 55.4373 170.568 55.7485 170.699 56.0434C170.732 56.0762 170.765 56.1417 170.797 56.24C170.863 56.3055 170.912 56.371 170.945 56.4366C171.109 56.6331 171.158 56.928 171.092 57.3212C171.059 57.3212 171.01 57.272 170.945 57.1737C170.912 57.0427 170.863 57.0263 170.797 57.1246C170.765 57.1573 170.748 57.2229 170.748 57.3212C170.781 57.4194 170.797 57.5014 170.797 57.5669C170.765 57.6652 170.748 57.7798 170.748 57.9109C170.781 58.0419 170.765 58.2058 170.699 58.4023C170.699 58.4023 170.65 58.4187 170.552 58.4515C170.453 58.4842 170.388 58.5498 170.355 58.6481C170.322 58.6808 170.339 58.8119 170.404 59.0412C170.47 59.4344 170.617 59.7784 170.847 60.0732C171.01 60.4009 171.174 60.7449 171.338 61.1053C171.502 61.4657 171.682 61.8261 171.879 62.1864C171.846 62.1864 171.813 62.1864 171.78 62.1864C171.747 62.1864 171.715 62.1864 171.682 62.1864H170.453ZM144.161 57.96C144.161 57.9273 144.145 57.8945 144.112 57.8617C144.112 57.829 144.112 57.8126 144.112 57.8126H144.21C144.21 57.8126 144.21 57.829 144.21 57.8617C144.21 57.8945 144.21 57.9273 144.21 57.96H144.161ZM147.061 56.584C147.192 56.3547 147.208 56.1253 147.11 55.896C147.077 55.9943 147.044 56.1089 147.012 56.24C147.012 56.3383 146.979 56.4202 146.913 56.4857C146.979 56.4857 147.028 56.5185 147.061 56.584ZM145.439 54.8148H145.488C145.488 54.8148 145.504 54.8148 145.537 54.8148C145.57 54.8148 145.586 54.7984 145.586 54.7657C145.848 54.2087 146.061 53.6845 146.225 53.193C146.422 52.6688 146.635 52.1446 146.864 51.6204C146.995 51.1945 147.159 50.7686 147.356 50.3427C147.552 49.9167 147.732 49.5072 147.896 49.1141C147.929 49.0485 147.945 48.983 147.945 48.9175C147.945 48.852 147.896 48.7537 147.798 48.6226C147.732 48.7864 147.65 48.8847 147.552 48.9175C147.421 49.2451 147.274 49.5891 147.11 49.9495C146.946 50.2771 146.799 50.6211 146.668 50.9815C146.471 51.5713 146.258 52.1774 146.029 52.7999C145.832 53.3896 145.652 53.9793 145.488 54.5691C145.455 54.6018 145.439 54.6837 145.439 54.8148ZM148.142 47.738H148.289C148.486 47.6397 148.551 47.4759 148.486 47.2466L148.289 47.1974C148.093 47.3285 148.044 47.5087 148.142 47.738ZM148.535 46.9517C148.535 46.9845 148.551 46.9845 148.584 46.9517C148.65 46.9189 148.682 46.9026 148.682 46.9026C148.748 46.8043 148.797 46.6896 148.83 46.5586C148.895 46.3947 148.895 46.2145 148.83 46.018C148.699 46.149 148.617 46.2964 148.584 46.4603C148.551 46.5913 148.519 46.7387 148.486 46.9026C148.453 46.9026 148.437 46.9189 148.437 46.9517C148.469 46.9517 148.502 46.9517 148.535 46.9517ZM164.409 59.9258H164.458C164.425 59.9258 164.409 59.9094 164.409 59.8767C164.343 59.8111 164.278 59.6965 164.212 59.5327C164.179 59.4016 164.114 59.2869 164.015 59.1886C164.015 59.1559 164.048 59.1395 164.114 59.1395C164.179 59.2378 164.228 59.3525 164.261 59.4835C164.327 59.6146 164.376 59.7456 164.409 59.8767C164.409 59.9094 164.409 59.9258 164.409 59.9258ZM164.703 58.5989C164.572 58.4023 164.474 58.2058 164.409 58.0092C164.343 57.8126 164.31 57.5505 164.31 57.2229C164.376 57.485 164.441 57.7143 164.507 57.9109C164.572 58.1402 164.638 58.3696 164.703 58.5989ZM163.622 57.0754C163.491 57.0427 163.426 56.9771 163.426 56.8789C163.458 56.7478 163.442 56.6495 163.377 56.584C163.508 56.6168 163.573 56.6823 163.573 56.7806C163.573 56.8461 163.59 56.9444 163.622 57.0754ZM163.082 56.3383C163.049 56.2072 163 56.1089 162.934 56.0434C162.902 55.9451 162.869 55.8468 162.836 55.7485C162.967 55.8796 163.049 56.0762 163.082 56.3383ZM162.787 54.3725C162.754 54.307 162.738 54.2251 162.738 54.1268L162.787 54.0776C162.787 54.1432 162.803 54.2414 162.836 54.3725H162.787ZM165.49 56.6331C165.424 56.5676 165.391 56.5021 165.391 56.4366C165.424 56.4693 165.441 56.5021 165.441 56.5348C165.441 56.5676 165.457 56.6004 165.49 56.6331ZM163.377 54.4708L163.327 54.1268C163.327 54.094 163.327 54.0449 163.327 53.9793C163.327 53.8811 163.311 53.7991 163.278 53.7336C163.377 53.963 163.409 54.2087 163.377 54.4708ZM162.295 53.2913C162.263 53.2258 162.246 53.0784 162.246 52.849C162.312 53.0784 162.377 53.2094 162.443 53.2422L162.295 53.2913ZM163.131 53.6845C163.098 53.619 163.065 53.5698 163.033 53.537C163.033 53.4715 163.016 53.406 162.983 53.3405C163.016 53.3077 163.033 53.2749 163.033 53.2422C163.033 53.3077 163.049 53.3896 163.082 53.4879C163.114 53.5534 163.147 53.619 163.18 53.6845H163.131ZM165.342 56.2891C165.31 56.2236 165.26 56.1581 165.195 56.0925C165.162 56.027 165.129 55.9779 165.097 55.9451L164.949 55.0605C164.949 54.995 164.949 54.9131 164.949 54.8148C164.949 54.7165 164.933 54.6346 164.9 54.5691C164.9 54.6674 164.9 54.7657 164.9 54.8639C164.933 54.9295 164.949 54.995 164.949 55.0605C165.015 55.2899 165.08 55.5028 165.146 55.6994C165.211 55.8632 165.277 56.0598 165.342 56.2891ZM162.59 52.9473C162.525 52.8163 162.459 52.6852 162.394 52.5542C162.361 52.4231 162.361 52.2921 162.394 52.161C162.426 52.2593 162.459 52.374 162.492 52.505C162.557 52.6033 162.59 52.7507 162.59 52.9473ZM163.573 53.193C163.409 52.9637 163.311 52.8163 163.278 52.7507C163.278 52.6524 163.327 52.5378 163.426 52.4067C163.59 52.6033 163.639 52.8654 163.573 53.193ZM166.276 55.9451C166.342 55.683 166.342 55.5028 166.276 55.4045C166.145 55.3062 166.063 55.2243 166.03 55.1588C166.03 55.0933 166.014 54.9295 165.981 54.6674C165.916 54.6018 165.883 54.5363 165.883 54.4708C165.85 54.7001 165.867 54.9622 165.932 55.2571C165.998 55.552 166.112 55.7813 166.276 55.9451ZM162.738 51.7678L162.787 51.7187C162.787 51.7187 162.77 51.7187 162.738 51.7187C162.738 51.7187 162.738 51.7351 162.738 51.7678ZM162.05 51.3747V50.785C162.181 51.0143 162.181 51.2109 162.05 51.3747ZM166.522 55.2571C166.587 55.0605 166.604 54.9458 166.571 54.9131C166.571 54.8476 166.505 54.7657 166.374 54.6674C166.407 54.7657 166.424 54.8476 166.424 54.9131C166.456 54.9786 166.489 55.0933 166.522 55.2571ZM165.047 53.5862C165.113 53.1275 165.047 52.9145 164.851 52.9473L164.753 53.0947C164.818 53.1275 164.851 53.193 164.851 53.2913C164.884 53.3568 164.949 53.4551 165.047 53.5862ZM163.819 52.0136C163.819 51.948 163.819 51.8825 163.819 51.817C163.819 51.7187 163.819 51.6532 163.819 51.6204C163.819 51.6532 163.819 51.7187 163.819 51.817C163.819 51.8825 163.835 51.948 163.868 52.0136H163.819ZM166.276 53.8811C166.342 53.7828 166.325 53.7009 166.227 53.6353C166.129 53.537 166.096 53.4388 166.129 53.3405V52.6524C165.899 53.2094 165.948 53.619 166.276 53.8811ZM160.084 46.5586C160.084 46.5586 160.068 46.5422 160.035 46.5094C160.002 46.4439 159.986 46.4111 159.986 46.4111V46.362C160.018 46.3947 160.051 46.4111 160.084 46.4111V46.5586ZM165.932 52.2593C165.932 52.2593 165.932 52.2429 165.932 52.2101C165.932 52.1774 165.948 52.161 165.981 52.161C165.916 52.03 165.883 51.948 165.883 51.9153C165.883 52.0791 165.899 52.1938 165.932 52.2593ZM165.637 50.2444H165.686C165.654 50.1461 165.637 50.0642 165.637 49.9987C165.637 49.9004 165.621 49.7857 165.588 49.6546H165.539C165.572 49.7857 165.588 49.9004 165.588 49.9987C165.588 50.0642 165.604 50.1461 165.637 50.2444ZM169.913 54.9622L169.962 54.8148C169.929 54.782 169.913 54.7165 169.913 54.6182L169.814 54.7165C169.814 54.7493 169.831 54.782 169.864 54.8148C169.896 54.8476 169.913 54.8967 169.913 54.9622ZM169.569 53.8319H169.667C169.667 53.7664 169.634 53.7009 169.569 53.6353H169.52C169.552 53.7009 169.569 53.7664 169.569 53.8319ZM168.93 52.4067C169.028 52.4067 169.077 52.3576 169.077 52.2593C169.077 52.1938 169.028 52.1119 168.93 52.0136V52.4067ZM153.892 42.8236C154.023 42.9546 154.137 42.9546 154.236 42.8236C154.334 42.6925 154.449 42.5615 154.58 42.4304C154.514 42.7253 154.547 42.8727 154.678 42.8727C154.809 42.84 154.907 42.8236 154.973 42.8236C155.661 42.7581 156.283 42.7089 156.84 42.6762C157.43 42.6434 158.036 42.5779 158.659 42.4796H160.231C160.199 42.3485 160.182 42.2339 160.182 42.1356C160.215 42.0045 160.231 41.8735 160.231 41.7424C160.231 41.6441 160.231 41.5458 160.231 41.4475C160.231 41.3165 160.231 41.2346 160.231 41.2018L160.035 39.9241C160.035 39.8585 160.018 39.793 159.986 39.7275C159.953 39.6292 160.018 39.5637 160.182 39.5309C160.313 39.4981 160.379 39.3999 160.379 39.236C160.379 39.0395 160.313 38.9248 160.182 38.892C159.953 38.8265 159.822 38.7282 159.789 38.5972C159.789 38.4334 159.789 38.2695 159.789 38.1057C159.592 37.0246 159.494 35.9598 159.494 34.9113C159.494 33.8302 159.494 32.7818 159.494 31.7661C159.461 31.5368 159.445 31.2091 159.445 30.7832C159.216 30.9143 159.052 31.0617 158.954 31.2255C158.888 31.3566 158.823 31.504 158.757 31.6678C158.626 32.0282 158.479 32.3722 158.315 32.6999C158.184 33.0275 158.036 33.3387 157.872 33.6336C157.643 34.2561 157.414 34.8622 157.184 35.4519C156.988 36.0089 156.758 36.5659 156.496 37.1228C156.202 37.7453 155.923 38.3678 155.661 38.9903C155.432 39.6128 155.088 40.1206 154.629 40.5138C154.596 40.5138 154.58 40.5466 154.58 40.6121C154.58 41.0052 154.498 41.3329 154.334 41.595C154.17 41.8243 154.056 42.1192 153.99 42.4796C153.957 42.5451 153.924 42.6106 153.892 42.6762C153.892 42.7417 153.892 42.7908 153.892 42.8236ZM166.718 43.5116C166.718 43.4461 166.718 43.3969 166.718 43.3642C166.751 43.2986 166.768 43.2331 166.768 43.1676C166.702 42.9055 166.62 42.6434 166.522 42.3813C166.456 42.1192 166.407 41.8407 166.374 41.5458C166.374 41.382 166.325 41.2346 166.227 41.1035C166.161 40.9397 166.145 40.7923 166.178 40.6612C166.211 40.4974 166.194 40.3664 166.129 40.2681C166.096 40.137 166.047 40.006 165.981 39.8749C165.948 39.8094 165.932 39.7439 165.932 39.6783C165.932 39.5801 165.899 39.4982 165.834 39.4326L165.588 37.7126C165.588 37.516 165.539 37.303 165.441 37.0737C165.408 36.8116 165.342 36.5986 165.244 36.4348C165.146 36.2382 165.031 36.0253 164.9 35.7959C164.802 35.9925 164.769 36.1727 164.802 36.3365C164.867 36.4676 164.9 36.615 164.9 36.7788C164.9 36.9099 164.933 37.0246 164.998 37.1228C165.064 37.2211 165.097 37.3194 165.097 37.4177C165.097 37.6798 165.097 37.9419 165.097 38.204C165.097 38.4661 165.162 38.7446 165.293 39.0395V39.1378C165.359 39.3671 165.391 39.5801 165.391 39.7766C165.424 39.9732 165.49 40.2026 165.588 40.4647C165.621 40.6285 165.654 40.825 165.686 41.0544C165.752 41.2837 165.867 41.5131 166.03 41.7424C166.096 41.8735 166.145 42.0209 166.178 42.1847C166.243 42.3485 166.309 42.496 166.374 42.627C166.44 42.7581 166.473 42.9055 166.473 43.0693C166.505 43.2004 166.587 43.3478 166.718 43.5116ZM164.802 35.1079H164.9C164.867 34.9441 164.835 34.8131 164.802 34.7148C164.802 34.5837 164.802 34.469 164.802 34.3708H164.753C164.753 34.469 164.753 34.5837 164.753 34.7148C164.753 34.8131 164.769 34.9441 164.802 35.1079ZM187.19 58.8938C187.092 58.8938 186.994 58.861 186.896 58.7955H186.208C186.175 58.7955 186.142 58.7955 186.109 58.7955C185.88 58.861 185.7 58.861 185.569 58.7955C185.339 58.6317 185.094 58.5006 184.832 58.4023C184.602 58.304 184.356 58.1894 184.094 58.0583C183.767 57.9273 183.423 57.7962 183.062 57.6652C182.735 57.5014 182.407 57.3048 182.079 57.0754C181.981 57.0099 181.883 56.9608 181.785 56.928C181.719 56.8952 181.637 56.8461 181.539 56.7806C181.473 56.715 181.408 56.6659 181.342 56.6331C181.277 56.5676 181.211 56.5348 181.146 56.5348C181.08 56.4693 181.015 56.4366 180.949 56.4366C180.916 56.4038 180.9 56.3874 180.9 56.3874C180.671 56.3219 180.441 56.24 180.212 56.1417C180.015 56.0106 179.819 55.9124 179.622 55.8468C179.458 55.6502 179.262 55.4864 179.032 55.3554C178.803 55.1916 178.557 55.0441 178.295 54.9131L177.411 54.0776C177.345 53.9138 177.231 53.7664 177.067 53.6353C176.903 53.4715 176.739 53.2749 176.575 53.0456C176.444 52.9801 176.346 52.8982 176.28 52.7999C176.215 52.6688 176.149 52.5378 176.084 52.4067C175.854 52.3084 175.691 52.1282 175.592 51.8661C175.298 51.6696 175.101 51.4402 175.003 51.1781C174.937 51.1126 174.872 51.0307 174.806 50.9324C174.773 50.8013 174.724 50.7031 174.659 50.6375V50.441C174.462 50.3099 174.315 50.1625 174.216 49.9987C174.118 49.8021 174.02 49.6383 173.921 49.5072L173.332 48.426C173.201 48.1312 173.086 47.8691 172.988 47.6397C172.922 47.4104 172.889 47.1647 172.889 46.9026C172.889 46.8043 172.873 46.7224 172.84 46.6568C172.808 46.5913 172.791 46.5586 172.791 46.5586C172.726 46.4275 172.676 46.2964 172.644 46.1654C172.644 46.0343 172.644 45.9033 172.644 45.7722C172.611 45.5429 172.562 45.3299 172.496 45.1334C172.431 44.9368 172.398 44.7402 172.398 44.5436C172.3 44.4781 172.251 44.3307 172.251 44.1013V43.1676C172.218 42.8727 172.185 42.5779 172.152 42.283C172.12 41.9554 172.136 41.6441 172.201 41.3493C172.234 41.2837 172.251 41.2018 172.251 41.1035C172.283 40.9725 172.332 40.8414 172.398 40.7104V40.5629C172.332 40.3008 172.316 40.1043 172.349 39.9732C172.414 39.8422 172.513 39.7111 172.644 39.5801C172.709 39.5145 172.742 39.4326 172.742 39.3343C172.775 39.2033 172.791 39.105 172.791 39.0395V38.5972C172.791 38.4334 172.824 38.3023 172.889 38.204C172.889 38.1057 172.922 38.0238 172.988 37.9583V38.204C172.988 38.204 173.004 38.2204 173.037 38.2532C173.102 38.2859 173.168 38.2695 173.233 38.204C173.299 38.1385 173.332 38.0566 173.332 37.9583C173.332 37.8272 173.332 37.7126 173.332 37.6143C173.201 37.4832 173.152 37.3522 173.184 37.2211C173.25 37.0901 173.299 36.9426 173.332 36.7788V36.5331C173.332 36.5331 173.348 36.5003 173.381 36.4348C173.446 36.3693 173.479 36.3365 173.479 36.3365C173.676 36.2382 173.774 36.1072 173.774 35.9434C173.774 35.8123 173.807 35.6813 173.872 35.5502C173.938 35.4192 173.987 35.2881 174.02 35.1571C174.085 35.0915 174.118 35.026 174.118 34.9605C174.151 34.8622 174.2 34.7475 174.265 34.6165L174.413 34.469C174.413 34.469 174.429 34.469 174.462 34.469C174.495 34.4363 174.511 34.3544 174.511 34.2233L174.659 34.0759C174.724 34.0104 174.773 33.9776 174.806 33.9776C174.839 33.9448 174.855 33.9285 174.855 33.9285V34.0759C174.855 34.2397 174.937 34.3216 175.101 34.3216L175.199 34.2233C175.199 34.1578 175.199 34.125 175.199 34.125C175.199 34.0923 175.199 34.0759 175.199 34.0759C175.265 33.9448 175.33 33.781 175.396 33.5844C175.494 33.3551 175.56 33.1749 175.592 33.0439C175.592 33.0439 175.592 33.0275 175.592 32.9947C175.592 32.962 175.56 32.9456 175.494 32.9456L175.347 32.7981C175.412 32.7981 175.461 32.7981 175.494 32.7981C175.56 32.7981 175.592 32.7981 175.592 32.7981C175.658 32.7981 175.691 32.7654 175.691 32.6999C175.723 32.6343 175.773 32.5852 175.838 32.5524C175.773 32.3886 175.74 32.2576 175.74 32.1593C175.773 32.061 175.887 31.9463 176.084 31.8153H176.231C176.231 31.8153 176.215 31.848 176.182 31.9135C176.182 31.9463 176.149 31.9627 176.084 31.9627C176.084 32.1265 176.133 32.2084 176.231 32.2084C176.461 32.2084 176.674 32.2576 176.87 32.3558C176.936 32.4869 177.018 32.536 177.116 32.5033C177.247 32.4705 177.329 32.3722 177.362 32.2084C177.394 32.2084 177.411 32.192 177.411 32.1593C177.443 32.1265 177.493 32.1101 177.558 32.1101V31.8153C177.624 31.6842 177.64 31.5532 177.607 31.4221C177.607 31.291 177.624 31.1436 177.656 30.9798C177.722 30.9798 177.738 30.9307 177.706 30.8324C177.706 30.7341 177.738 30.6522 177.804 30.5866V30.4884C177.804 30.4228 177.804 30.3573 177.804 30.2918C177.804 30.1935 177.804 30.128 177.804 30.0952C177.869 29.9969 177.935 29.8822 178 29.7512C178.066 29.6201 178.132 29.5219 178.197 29.4563C178.263 29.3908 178.312 29.3417 178.344 29.3089C178.377 29.2761 178.394 29.2434 178.394 29.2106C178.459 29.1451 178.541 29.1123 178.639 29.1123C178.738 29.1123 178.787 29.1451 178.787 29.2106C178.852 29.2106 178.869 29.2597 178.836 29.358C178.803 29.4236 178.787 29.4563 178.787 29.4563C178.721 29.6201 178.688 29.8659 178.688 30.1935C178.688 30.259 178.705 30.3573 178.738 30.4884C178.77 30.5866 178.787 30.6686 178.787 30.7341C178.951 30.7341 179.032 30.7341 179.032 30.7341C179.032 30.7013 179 30.6522 178.934 30.5866C179 30.4556 179.065 30.3737 179.131 30.3409C179.229 30.3082 179.278 30.2263 179.278 30.0952C179.344 30.0952 179.393 30.0624 179.426 29.9969C179.458 29.8986 179.491 29.8003 179.524 29.7021C179.688 29.6365 179.819 29.5874 179.917 29.5546C180.015 29.5219 180.13 29.571 180.261 29.7021H180.163C180.097 29.8003 180.048 29.8659 180.015 29.8986C180.015 29.9969 180.032 30.0624 180.065 30.0952C180.13 30.0952 180.163 30.0952 180.163 30.0952C180.228 29.9969 180.327 29.9314 180.458 29.8986C180.589 29.8331 180.654 29.7348 180.654 29.6038L180.802 29.4563C181.031 29.4563 181.228 29.3744 181.391 29.2106C181.457 29.2106 181.539 29.1615 181.637 29.0632C181.735 28.9649 181.817 28.9157 181.883 28.9157C181.981 28.8502 182.096 28.7847 182.227 28.7192C182.358 28.6536 182.473 28.5717 182.571 28.4734H182.718C182.98 28.2769 183.259 28.0803 183.554 27.8837C183.849 27.6544 184.078 27.4086 184.242 27.1465C184.275 27.1465 184.291 27.1302 184.291 27.0974C184.291 27.0319 184.275 26.9991 184.242 26.9991C184.045 26.8025 183.799 26.7698 183.505 26.9008C183.505 26.8353 183.521 26.7698 183.554 26.7042C183.587 26.606 183.57 26.5241 183.505 26.4585C183.505 26.4585 183.472 26.4585 183.406 26.4585C183.374 26.4258 183.324 26.3766 183.259 26.3111C183.39 26.2456 183.505 26.18 183.603 26.1145C183.734 26.0162 183.832 25.8852 183.898 25.7214C183.963 25.7214 183.996 25.7541 183.996 25.8196C183.996 25.8524 183.996 25.8688 183.996 25.8688C183.931 25.9998 183.849 26.0981 183.75 26.1637V26.3111C183.816 26.3111 183.849 26.3275 183.849 26.3602C183.881 26.393 183.898 26.3766 183.898 26.3111C184.029 26.3111 184.094 26.2619 184.094 26.1637C184.389 26.0654 184.635 26.1145 184.832 26.3111C184.963 26.4421 185.077 26.4421 185.176 26.3111C185.307 26.0818 185.454 25.8688 185.618 25.6722C185.814 25.4756 185.978 25.2791 186.109 25.0825C186.175 24.9514 186.224 24.8204 186.257 24.6893C186.289 24.5255 186.273 24.3781 186.208 24.247V23.8539C186.208 23.8539 186.191 23.8539 186.158 23.8539C186.126 23.8539 186.077 23.8539 186.011 23.8539C186.077 23.7883 186.109 23.7228 186.109 23.6573C186.142 23.5918 186.175 23.5262 186.208 23.4607C186.273 23.2969 186.306 23.1167 186.306 22.9201C186.339 22.7236 186.355 22.5597 186.355 22.4287C186.355 22.3632 186.388 22.2813 186.453 22.183C186.519 22.0519 186.519 21.9536 186.453 21.8881C186.519 21.8226 186.552 21.7571 186.552 21.6915C186.584 21.5932 186.633 21.5277 186.699 21.4949C186.765 21.4949 186.814 21.4786 186.846 21.4458C186.879 21.413 186.896 21.4294 186.896 21.4949C187.092 21.4949 187.272 21.5441 187.436 21.6424C187.6 21.7407 187.764 21.8226 187.928 21.8881C188.124 21.8881 188.337 21.9864 188.566 22.183C188.599 22.183 188.616 22.2157 188.616 22.2813C188.648 22.314 188.681 22.3632 188.714 22.4287C188.878 22.4287 188.992 22.4778 189.058 22.5761C189.156 22.6744 189.271 22.7563 189.402 22.8218C189.467 22.8874 189.5 22.9693 189.5 23.0676C189.5 23.1331 189.5 23.1986 189.5 23.2641C189.631 23.2641 189.746 23.215 189.844 23.1167C189.975 22.9857 190.041 22.8874 190.041 22.8218C190.041 22.658 190.123 22.5761 190.287 22.5761C190.385 22.6416 190.499 22.6908 190.631 22.7236C190.762 22.7236 190.876 22.7563 190.975 22.8218C191.106 22.8218 191.171 22.871 191.171 22.9693C191.237 23.0676 191.302 23.1495 191.368 23.215C191.466 23.2805 191.532 23.3624 191.564 23.4607C191.925 23.5918 192.252 23.7392 192.547 23.903C192.842 24.0341 193.104 24.1979 193.333 24.3945L193.727 24.8368C193.465 24.8368 193.317 24.935 193.284 25.1316C193.284 25.2954 193.219 25.4593 193.088 25.6231L193.186 25.7214C193.252 25.8852 193.284 26.0654 193.284 26.2619C193.317 26.4585 193.333 26.6715 193.333 26.9008C193.399 27.0319 193.383 27.1629 193.284 27.294C193.219 27.425 193.153 27.5233 193.088 27.5888C193.055 27.6216 193.022 27.6871 192.989 27.7854C192.989 27.8509 192.957 27.9165 192.891 27.982C192.891 28.0148 192.858 28.0475 192.793 28.0803C192.76 28.0803 192.744 28.0803 192.744 28.0803L192.645 28.2277C192.645 28.326 192.547 28.3752 192.351 28.3752C192.088 28.3752 191.957 28.4734 191.957 28.67C191.826 28.8011 191.679 28.9157 191.515 29.014C191.351 29.0796 191.22 29.1778 191.122 29.3089C190.991 29.3744 190.844 29.4727 190.68 29.6038C190.516 29.702 190.385 29.8003 190.287 29.8986C190.221 29.9969 190.155 30.0624 190.09 30.0952C190.024 30.0952 189.959 30.128 189.893 30.1935C189.697 30.3245 189.533 30.4556 189.402 30.5866C189.271 30.7177 189.107 30.816 188.91 30.8815C188.779 30.9143 188.648 30.9962 188.517 31.1272C188.419 31.2583 188.304 31.3566 188.173 31.4221C188.042 31.4221 187.846 31.5204 187.584 31.717C187.387 31.7497 187.059 31.8316 186.601 31.9627C186.142 32.0937 185.814 32.2248 185.618 32.3558C185.487 32.3558 185.372 32.405 185.274 32.5033C185.176 32.5688 185.061 32.6343 184.93 32.6999C184.766 32.7654 184.668 32.8145 184.635 32.8473C184.635 32.88 184.651 32.962 184.684 33.093H184.586C184.356 33.1585 184.143 33.2896 183.947 33.4862C183.783 33.6827 183.603 33.8629 183.406 34.0267C183.341 34.0923 183.243 34.1578 183.111 34.2233C182.98 34.2889 182.866 34.3544 182.767 34.4199C182.604 34.5837 182.423 34.7312 182.227 34.8622C182.096 34.9933 181.965 35.1243 181.834 35.2554C181.735 35.3536 181.604 35.4847 181.441 35.6485C181.342 35.6813 181.244 35.7468 181.146 35.8451C181.08 35.9106 181.015 35.9761 180.949 36.0417C180.753 36.1727 180.556 36.3038 180.359 36.4348C180.163 36.5659 179.999 36.7624 179.868 37.0246C179.737 37.1228 179.622 37.2375 179.524 37.3686C179.458 37.4996 179.376 37.647 179.278 37.8109C179.147 37.9419 179.082 38.0893 179.082 38.2532C179.082 38.3842 179.049 38.4661 178.983 38.4989C178.918 38.5316 178.885 38.5972 178.885 38.6955C178.754 38.9248 178.623 39.1705 178.492 39.4326C178.394 39.662 178.312 39.8749 178.246 40.0715C178.148 40.2026 178.082 40.3664 178.05 40.5629C178.05 40.7268 178.05 40.8742 178.05 41.0052C178.05 41.3001 178.082 41.5786 178.148 41.8407C178.213 42.1028 178.246 42.3485 178.246 42.5779C178.246 42.7089 178.263 42.84 178.295 42.971C178.328 43.1021 178.344 43.2331 178.344 43.3642C178.41 43.5607 178.443 43.7246 178.443 43.8556C178.476 43.9867 178.541 44.085 178.639 44.1505C178.77 44.4453 178.901 44.7402 179.032 45.0351C179.196 45.3299 179.344 45.6248 179.475 45.9197C179.54 46.0507 179.606 46.1982 179.671 46.362C179.737 46.493 179.835 46.6405 179.966 46.8043C180.032 47.0008 180.13 47.181 180.261 47.3449C180.425 47.4759 180.572 47.6233 180.703 47.7872C180.703 47.8854 180.753 47.9674 180.851 48.0329C180.949 48.0984 181.031 48.1639 181.097 48.2295C181.85 49.1468 182.636 49.8676 183.455 50.3918C183.783 50.6211 184.045 50.8177 184.242 50.9815C184.471 51.1454 184.75 51.3583 185.077 51.6204C185.274 51.7515 185.487 51.8661 185.716 51.9644C185.945 52.0627 186.158 52.1774 186.355 52.3084C186.552 52.4067 186.748 52.5214 186.945 52.6524C187.141 52.7507 187.354 52.8326 187.584 52.8982C187.649 52.9637 187.764 52.9965 187.928 52.9965C188.026 53.1275 188.157 53.2422 188.321 53.3405H188.566C188.632 53.406 188.681 53.4551 188.714 53.4879C188.779 53.5207 188.845 53.5698 188.91 53.6353C189.009 53.6353 189.091 53.6681 189.156 53.7336C189.255 53.7664 189.369 53.7828 189.5 53.7828C189.73 53.8155 189.943 53.8647 190.139 53.9302C190.336 53.9957 190.549 54.0285 190.778 54.0285C191.007 54.0613 191.269 54.1268 191.564 54.2251C191.859 54.2906 192.105 54.3889 192.301 54.5199C192.629 54.5199 192.908 54.6018 193.137 54.7657C193.202 54.8312 193.268 54.9295 193.333 55.0605C193.399 55.1916 193.465 55.2899 193.53 55.3554C193.53 55.3554 193.53 55.3718 193.53 55.4045C193.563 55.4373 193.612 55.4701 193.677 55.5028C193.579 55.5356 193.448 55.5683 193.284 55.6011C193.153 55.6339 193.055 55.6175 192.989 55.552C192.957 55.552 192.908 55.5847 192.842 55.6502C192.777 55.683 192.711 55.6994 192.645 55.6994H192.498C192.138 55.6994 191.957 55.896 191.957 56.2891V56.3874C191.957 56.3874 191.957 56.371 191.957 56.3383C191.957 56.3055 191.925 56.2891 191.859 56.2891C191.794 56.3219 191.728 56.3547 191.663 56.3874C191.597 56.4202 191.564 56.4693 191.564 56.5348C191.532 56.6659 191.45 56.7478 191.319 56.7806C191.188 56.7806 191.073 56.7806 190.975 56.7806C190.909 56.8789 190.876 56.9771 190.876 57.0754C190.876 57.1082 190.86 57.141 190.827 57.1737C190.794 57.2065 190.778 57.272 190.778 57.3703C190.778 57.4686 190.745 57.5505 190.68 57.616C190.647 57.6488 190.631 57.6652 190.631 57.6652C190.631 57.7962 190.598 57.8945 190.532 57.96C190.499 58.0583 190.45 58.1402 190.385 58.2058C190.319 58.2058 190.237 58.2549 190.139 58.3532C190.074 58.5498 189.91 58.6481 189.648 58.6481C189.517 58.6481 189.386 58.6644 189.255 58.6972C189.156 58.7627 189.074 58.8282 189.009 58.8938H188.91C188.779 58.9593 188.681 59.0084 188.616 59.0412C188.55 59.074 188.485 59.0248 188.419 58.8938H188.173C187.977 58.8938 187.797 58.8938 187.633 58.8938C187.469 58.8938 187.321 58.8938 187.19 58.8938ZM176.575 31.3238V31.1272C176.739 30.9634 176.968 30.9634 177.263 31.1272C177.132 31.2255 177.018 31.291 176.919 31.3238C176.854 31.3238 176.788 31.3238 176.723 31.3238H176.575ZM182.866 27.5888C182.866 27.4578 182.915 27.3759 183.013 27.3431C183.144 27.3104 183.226 27.2448 183.259 27.1465C183.259 27.2776 183.21 27.3759 183.111 27.4414C183.013 27.4742 182.931 27.5233 182.866 27.5888ZM185.077 24.8368C185.208 24.7712 185.307 24.6729 185.372 24.5419C185.438 24.4108 185.503 24.3126 185.569 24.247C185.634 24.4764 185.634 24.6238 185.569 24.6893C185.503 24.7221 185.339 24.7712 185.077 24.8368ZM193.677 55.5028H193.727C193.727 55.5683 193.743 55.6011 193.776 55.6011V55.9451C193.776 55.9779 193.776 55.9615 193.776 55.896C193.776 55.8304 193.776 55.7322 193.776 55.6011V55.4537C193.776 55.3554 193.776 55.2735 193.776 55.208C193.776 55.1097 193.776 55.0605 193.776 55.0605C193.94 55.1588 193.94 55.2899 193.776 55.4537C193.743 55.4537 193.727 55.4701 193.727 55.5028C193.727 55.5028 193.71 55.5028 193.677 55.5028ZM199.323 41.7424C199.258 41.5786 199.192 41.4148 199.127 41.251C199.061 41.0544 199.045 40.8742 199.078 40.7104C199.078 40.6776 199.012 40.5957 198.881 40.4647C198.848 40.3336 198.848 40.1534 198.881 39.9241C198.881 39.7603 198.881 39.5964 198.881 39.4326C198.914 39.2688 198.947 39.105 198.979 38.9412V38.892C198.914 38.6955 198.881 38.4989 198.881 38.3023C198.881 38.1057 198.881 37.9092 198.881 37.7126C198.914 37.4832 198.914 37.2703 198.881 37.0737C198.881 36.8771 198.881 36.6805 198.881 36.484C198.848 36.2219 198.848 35.9761 198.881 35.7468C198.947 35.583 198.996 35.4028 199.028 35.2062C199.094 35.0096 199.094 34.8131 199.028 34.6165C198.996 34.4527 198.996 34.3052 199.028 34.1742C199.094 34.0104 199.143 33.8629 199.176 33.7319C199.274 33.306 199.258 32.8964 199.127 32.5033C199.061 32.3067 199.028 32.1429 199.028 32.0118C199.094 32.0118 199.143 32.0118 199.176 32.0118C199.209 32.0118 199.241 32.0118 199.274 32.0118V31.8644C199.274 31.7989 199.258 31.7497 199.225 31.717C199.192 31.6514 199.192 31.6023 199.225 31.5695C199.291 31.3074 199.323 31.0289 199.323 30.7341C199.323 30.4065 199.34 30.1116 199.372 29.8495C199.372 29.784 199.356 29.7348 199.323 29.7021C199.323 29.6365 199.323 29.5874 199.323 29.5546C199.258 29.2598 199.307 29.014 199.471 28.8175C199.635 28.6864 199.716 28.4571 199.716 28.1294C199.651 27.769 199.602 27.425 199.569 27.0974C199.536 26.7698 199.487 26.4421 199.422 26.1145C199.422 26.049 199.422 25.9835 199.422 25.9179C199.454 25.8196 199.471 25.7214 199.471 25.6231C199.405 25.5575 199.34 25.5248 199.274 25.5248C199.045 25.4593 198.947 25.3118 198.979 25.0825C199.045 24.9514 199.045 24.8368 198.979 24.7385C198.947 24.6402 198.897 24.5583 198.832 24.4928C198.897 24.0668 198.783 23.7883 198.488 23.6573C198.455 23.6573 198.439 23.6245 198.439 23.559C198.406 23.428 198.39 23.1822 198.39 22.8218C198.39 22.4287 198.406 22.183 198.439 22.0847C198.537 21.9864 198.586 21.8881 198.586 21.7898C198.619 21.6915 198.635 21.5769 198.635 21.4458V21.2001C198.701 20.8725 198.848 20.7905 199.078 20.9544L199.471 21.2001C199.536 21.2656 199.618 21.2984 199.716 21.2984C199.815 21.5932 199.962 21.8881 200.159 22.183C200.224 22.2485 200.257 22.2813 200.257 22.2813C200.388 22.314 200.503 22.3632 200.601 22.4287C200.732 22.4615 200.863 22.5106 200.994 22.5761C201.355 22.8055 201.6 23.1495 201.731 23.6082C201.731 23.6737 201.748 23.7064 201.781 23.7064C201.846 23.8703 201.912 24.0341 201.977 24.1979C202.075 24.3289 202.108 24.5255 202.075 24.7876C202.272 24.6238 202.452 24.4764 202.616 24.3453C202.813 24.2143 203.009 24.0013 203.206 23.7064C203.206 24.0668 203.222 24.3126 203.255 24.4436C203.386 24.3453 203.517 24.2798 203.648 24.247C203.615 23.7883 203.517 23.4935 203.353 23.3624C203.222 23.2314 202.976 23.1495 202.616 23.1167C202.78 22.7563 202.878 22.527 202.911 22.4287C202.976 22.3304 203.091 22.1994 203.255 22.0355C203.32 22.0683 203.386 22.1011 203.451 22.1338C203.55 22.1666 203.615 22.183 203.648 22.183C203.943 22.2485 204.09 22.4615 204.09 22.8218C204.156 22.9529 204.205 23.0676 204.238 23.1659C204.303 23.2314 204.369 23.2969 204.434 23.3624C204.598 23.5262 204.762 23.6901 204.926 23.8539C205.09 24.0177 205.27 24.1651 205.466 24.2962C205.499 24.3289 205.532 24.3617 205.565 24.3945C205.597 24.3945 205.63 24.4272 205.663 24.4928C205.991 24.8531 206.384 25.0333 206.842 25.0333C207.203 25.0661 207.498 25.2135 207.727 25.4756C207.956 25.7377 208.137 26.049 208.268 26.4094C208.268 26.606 208.268 26.7042 208.268 26.7042C208.137 26.8025 208.071 26.9172 208.071 27.0483C208.071 27.1793 208.038 27.294 207.973 27.3923C207.874 27.425 207.76 27.4578 207.629 27.4906C207.53 27.4906 207.432 27.5233 207.334 27.5888C207.203 27.6216 207.088 27.7199 206.99 27.8837C206.924 28.0475 206.908 28.2113 206.941 28.3752C206.941 28.4734 206.957 28.5717 206.99 28.67C207.023 28.7683 207.055 28.8666 207.088 28.9649C207.121 28.9976 207.137 29.0632 207.137 29.1615C207.137 29.4236 207.236 29.6201 207.432 29.7512C207.399 29.784 207.367 29.8495 207.334 29.9478C207.301 30.0133 207.268 30.0788 207.236 30.1443L206.99 30.0461C206.793 29.915 206.695 29.9642 206.695 30.1935C206.662 30.3245 206.629 30.472 206.597 30.6358C206.564 30.7668 206.531 30.9143 206.498 31.0781C206.466 31.3402 206.416 31.6187 206.351 31.9135C206.285 32.1756 206.171 32.4377 206.007 32.6999V32.8964C205.974 33.0275 205.941 33.1913 205.909 33.3879C205.909 33.5845 205.909 33.781 205.909 33.9776C205.876 34.2069 205.843 34.4363 205.81 34.6656C205.81 34.8622 205.81 35.0752 205.81 35.3045C205.81 35.6977 205.679 35.8942 205.417 35.8942C205.384 36.1563 205.352 36.4184 205.319 36.6805C205.286 36.9426 205.27 37.2047 205.27 37.4669C205.27 37.5979 205.335 37.6962 205.466 37.7617C205.499 37.7945 205.565 37.7617 205.663 37.6634L206.302 36.9754C206.531 36.6805 206.744 36.3857 206.941 36.0908C207.17 35.7959 207.399 35.5011 207.629 35.2062C207.989 34.8131 208.333 34.4199 208.661 34.0267C209.021 33.6336 209.365 33.2404 209.693 32.8473L211.216 30.8815C211.544 30.5211 211.855 30.1771 212.15 29.8495C212.445 29.4891 212.74 29.1451 213.035 28.8175C213.166 28.6864 213.264 28.5717 213.329 28.4734C213.428 28.3752 213.542 28.2932 213.673 28.2277C213.772 28.1622 213.87 28.0475 213.968 27.8837C214.099 27.7199 214.214 27.5725 214.312 27.4414C214.509 27.2448 214.689 27.0319 214.853 26.8025C215.05 26.5732 215.23 26.3602 215.394 26.1637C215.394 26.1309 215.459 26.0818 215.59 26.0162C215.819 25.9179 216.016 25.7869 216.18 25.6231C216.376 25.4593 216.557 25.3118 216.72 25.1808C216.819 25.0825 216.917 25.017 217.015 24.9842C217.146 24.9514 217.277 24.9187 217.408 24.8859C217.474 24.8859 217.556 24.9023 217.654 24.9351C217.752 24.9351 217.818 24.9351 217.851 24.9351C218.113 25.0006 218.178 25.1808 218.047 25.4756V25.6722C218.047 25.9998 217.965 26.2783 217.802 26.5077C217.638 26.737 217.474 26.9663 217.31 27.1957V27.294C217.539 27.6544 217.851 27.8673 218.244 27.9329C218.309 27.9329 218.359 27.9165 218.391 27.8837C218.457 27.8182 218.506 27.769 218.539 27.7363C218.604 27.6707 218.686 27.6216 218.784 27.5888C218.916 27.5233 218.997 27.4742 219.03 27.4414V27.5397C218.997 27.6052 218.932 27.6707 218.834 27.7363C218.768 27.8018 218.703 27.8673 218.637 27.9329C218.604 27.9984 218.555 28.0803 218.49 28.1786C218.457 28.2769 218.408 28.3752 218.342 28.4734C218.473 28.5062 218.588 28.5062 218.686 28.4734C218.784 28.4407 218.899 28.4079 219.03 28.3752C218.997 28.4734 218.948 28.5717 218.883 28.67C218.817 28.7683 218.752 28.8502 218.686 28.9157C218.555 29.0468 218.44 29.1451 218.342 29.2106C218.08 29.3417 217.851 29.5382 217.654 29.8003C217.458 30.0297 217.245 30.2263 217.015 30.3901C216.917 30.5539 216.77 30.6849 216.573 30.7832C216.344 30.816 216.163 30.9307 216.032 31.1272C215.901 31.291 215.787 31.4876 215.688 31.717L215.541 31.9135C215.443 31.9791 215.328 32.0446 215.197 32.1101C215.099 32.1429 215 32.192 214.902 32.2576C214.804 32.2903 214.755 32.3395 214.755 32.405C214.755 32.5688 214.706 32.6835 214.607 32.749C214.542 32.8145 214.476 32.8964 214.411 32.9947C214.378 33.0275 214.345 33.0439 214.312 33.0439C214.312 33.0439 214.28 33.0602 214.214 33.093C213.854 33.093 213.673 33.3387 213.673 33.8302C213.542 33.9285 213.411 34.0267 213.28 34.125C213.149 34.2233 213.051 34.4035 212.985 34.6656C212.985 34.6984 212.969 34.7148 212.936 34.7148C212.805 34.7475 212.707 34.8622 212.641 35.0588C212.609 35.2226 212.56 35.3864 212.494 35.5502C212.461 35.583 212.445 35.6321 212.445 35.6977C212.445 35.7632 212.412 35.8287 212.347 35.8942C212.052 36.1891 211.806 36.5331 211.609 36.9263C211.446 37.3194 211.233 37.6798 210.971 38.0074L210.823 38.2532C210.725 38.3187 210.561 38.417 210.332 38.548C210.102 38.6463 209.988 38.7937 209.988 38.9903C209.955 39.1214 209.906 39.236 209.84 39.3343C209.775 39.4326 209.709 39.5637 209.644 39.7275C209.545 40.0551 209.578 40.35 209.742 40.6121C209.775 40.7759 209.922 40.9889 210.184 41.251C211.069 42.4304 211.986 43.4788 212.936 44.3962C213.067 44.5273 213.182 44.6419 213.28 44.7402C213.379 44.8385 213.493 44.9532 213.624 45.0842C213.559 45.3136 213.493 45.461 213.428 45.5265C213.395 45.5593 213.313 45.5101 213.182 45.3791C213.149 45.3136 213.117 45.2644 213.084 45.2317C213.051 45.1989 213.002 45.1661 212.936 45.1334C212.51 44.904 212.15 44.6092 211.855 44.2488C211.56 43.8556 211.216 43.4952 210.823 43.1676C210.758 43.1021 210.676 43.0202 210.577 42.9219C210.479 42.8236 210.381 42.7581 210.283 42.7253C210.25 42.7253 210.233 42.7417 210.233 42.7744C210.233 42.8727 210.266 42.9546 210.332 43.0202C210.561 43.3478 210.79 43.659 211.02 43.9539C211.282 44.216 211.544 44.4945 211.806 44.7894C211.97 44.9532 212.117 45.1497 212.248 45.3791C212.412 45.5757 212.56 45.7395 212.691 45.8705C212.953 46.0671 213.182 46.2801 213.379 46.5094C213.608 46.7387 213.837 46.9026 214.067 47.0008C214.361 47.1647 214.673 47.263 215 47.2957C215.394 47.4268 215.787 47.4431 216.18 47.3449C216.573 47.2466 216.95 47.3121 217.31 47.5414C217.441 47.607 217.556 47.6725 217.654 47.738C217.785 47.8035 217.916 47.8691 218.047 47.9346C218.08 47.9674 218.244 48.0656 218.539 48.2295C218.866 48.3933 219.178 48.7864 219.473 49.4089C219.898 49.4089 220.21 49.1796 220.406 48.7209L220.603 48.3769C220.701 48.5407 220.816 48.5735 220.947 48.4752C221.078 48.3769 221.209 48.3114 221.34 48.2786C221.34 47.8854 221.438 47.6561 221.635 47.5906C221.668 47.6889 221.684 47.7708 221.684 47.8363C221.684 47.9018 221.684 47.951 221.684 47.9837C221.815 48.082 221.93 48.1803 222.028 48.2786C222.159 48.3769 222.274 48.4752 222.372 48.5735C222.339 48.7045 222.323 48.8356 222.323 48.9666C222.323 49.0649 222.29 49.1632 222.225 49.2615C222.094 49.4908 222.044 49.7202 222.077 49.9495C222.11 50.1461 222.159 50.3427 222.225 50.5392C222.225 50.572 222.208 50.5884 222.175 50.5884C222.175 50.5884 222.175 50.6048 222.175 50.6375C222.11 50.7686 222.028 50.8833 221.93 50.9815C221.864 51.0798 221.799 51.2109 221.733 51.3747C221.7 51.4075 221.684 51.473 221.684 51.5713C221.684 51.6696 221.684 51.7678 221.684 51.8661C221.717 51.8661 221.668 51.8989 221.537 51.9644C221.438 51.9972 221.34 52.0463 221.242 52.1119C221.143 52.1774 221.094 52.2921 221.094 52.4559C221.094 52.4886 221.045 52.5542 220.947 52.6524C220.98 52.8163 220.98 52.9965 220.947 53.193C220.947 53.3568 220.98 53.4715 221.045 53.537C221.143 53.7009 221.176 53.8974 221.143 54.1268C221.111 54.3561 221.176 54.5363 221.34 54.6674C221.34 54.6674 221.34 54.7165 221.34 54.8148C221.209 54.8476 221.078 54.8476 220.947 54.8148C220.816 54.782 220.701 54.8476 220.603 55.0114C220.668 55.0769 220.701 55.1588 220.701 55.2571C220.734 55.3226 220.767 55.3881 220.799 55.4537C220.668 55.5192 220.57 55.5192 220.505 55.4537C220.472 55.3554 220.423 55.2571 220.357 55.1588C220.259 55.2571 220.161 55.339 220.062 55.4045C219.964 55.4701 219.882 55.552 219.817 55.6502C219.653 55.4864 219.538 55.3881 219.473 55.3554C219.341 55.4209 219.243 55.3226 219.178 55.0605C219.112 54.7984 218.981 54.651 218.784 54.6182C218.653 54.6182 218.522 54.6837 218.391 54.8148C218.26 55.0441 218.129 55.1424 217.998 55.1097C217.9 55.0769 217.965 55.0441 218.195 55.0114C218.096 54.9786 217.998 54.9458 217.9 54.9131C217.834 54.8476 217.769 54.7984 217.703 54.7657C217.474 54.7001 217.327 54.7001 217.261 54.7657C217.163 54.8312 217.064 54.7984 216.966 54.6674C216.868 54.5035 216.786 54.4053 216.72 54.3725C216.491 54.2742 216.245 54.1104 215.983 53.8811C215.623 53.5534 215.213 53.2913 214.755 53.0947C214.722 53.0947 214.706 53.0784 214.706 53.0456C214.411 52.849 214.116 52.6524 213.821 52.4559C213.559 52.2265 213.297 51.9972 213.035 51.7678C212.445 51.3092 211.872 50.8833 211.315 50.4901C211.151 50.3263 210.987 50.1625 210.823 49.9987C210.659 49.8348 210.495 49.6874 210.332 49.5564C210.07 49.2943 209.807 49.0321 209.545 48.77C209.283 48.5079 209.005 48.2622 208.71 48.0329C208.481 47.7708 208.235 47.5087 207.973 47.2466C207.743 46.9845 207.514 46.7224 207.285 46.4603C207.154 46.2964 207.023 46.1326 206.892 45.9688C206.761 45.7722 206.613 45.592 206.449 45.4282C206.416 45.3627 206.335 45.5265 206.204 45.9197C206.072 46.2801 205.974 46.4275 205.909 46.362C205.974 45.5429 205.958 45.0515 205.86 44.8876C205.761 44.6911 205.663 44.5436 205.565 44.4453C205.532 44.4126 205.483 44.3962 205.417 44.3962C205.319 44.3962 205.237 44.4945 205.172 44.6911C205.139 44.8876 205.221 44.9859 205.417 44.9859C205.384 45.117 205.319 45.4446 205.221 45.9688C205.122 46.493 205.024 46.7715 204.926 46.8043C204.795 46.837 204.696 46.9517 204.631 47.1483C204.565 47.3449 204.5 47.5251 204.434 47.6889C204.533 47.6889 204.615 47.6889 204.68 47.6889C204.746 47.6889 204.844 47.6889 204.975 47.6889L204.68 48.2295C204.647 48.3933 204.647 48.5243 204.68 48.6226C204.778 48.852 204.811 49.0977 204.778 49.3598C204.778 49.5891 204.746 49.8185 204.68 50.0478C204.68 50.2771 204.664 50.4901 204.631 50.6867C204.598 50.8505 204.631 51.0143 204.729 51.1781C204.795 51.2436 204.827 51.2928 204.827 51.3255C204.795 51.6204 204.795 51.8989 204.827 52.161C204.893 52.4231 204.893 52.6852 204.827 52.9473C204.795 53.0784 204.762 53.2094 204.729 53.3405C204.696 53.4715 204.664 53.619 204.631 53.7828C204.533 54.2414 204.549 54.5855 204.68 54.8148C204.68 55.0114 204.664 55.1752 204.631 55.3062C204.631 55.4045 204.631 55.5356 204.631 55.6994C204.664 55.9943 204.647 56.2891 204.582 56.584C204.516 56.8461 204.451 57.1082 204.385 57.3703C204.352 57.4358 204.32 57.5177 204.287 57.616C204.254 57.6815 204.221 57.7798 204.189 57.9109C204.123 57.8454 203.992 57.7471 203.795 57.616C203.632 57.5505 203.517 57.5341 203.451 57.5669C203.386 57.6979 203.353 57.8617 203.353 58.0583C203.353 58.1894 203.37 58.304 203.402 58.4023C203.435 58.5006 203.435 58.6317 203.402 58.7955C203.37 58.8938 203.337 58.9921 203.304 59.0904C203.271 59.1886 203.238 59.2705 203.206 59.3361C203.107 59.4016 203.026 59.4835 202.96 59.5818C202.927 59.7128 202.878 59.8439 202.813 59.975C202.714 59.975 202.632 59.8439 202.567 59.5818C202.567 59.2869 202.419 58.9921 202.125 58.6972C201.928 58.5661 201.813 58.6153 201.781 58.8446C201.748 58.9757 201.731 59.1067 201.731 59.2378C201.731 59.4016 201.731 59.549 201.731 59.6801V59.9258C201.502 59.7948 201.387 59.5818 201.387 59.2869C201.322 59.1231 201.256 58.9593 201.191 58.7955C201.158 58.6317 201.109 58.4842 201.043 58.3532C201.043 58.1894 201.011 58.0419 200.945 57.9109C200.912 57.7471 200.814 57.6324 200.65 57.5669C200.683 57.5014 200.716 57.4358 200.749 57.3703C200.814 57.3048 200.83 57.2556 200.798 57.2229C200.732 57.1246 200.617 57.0427 200.454 56.9771C200.519 56.9116 200.552 56.8461 200.552 56.7806C200.585 56.6495 200.617 56.5348 200.65 56.4366C200.683 56.3383 200.683 56.2236 200.65 56.0925C200.617 55.9615 200.601 55.8304 200.601 55.6994C200.634 55.5683 200.65 55.4373 200.65 55.3062C200.65 55.208 200.65 55.1588 200.65 55.1588C200.585 55.0605 200.552 54.9458 200.552 54.8148C200.585 54.6837 200.585 54.5691 200.552 54.4708V54.2742C200.388 54.1432 200.323 54.0121 200.355 53.8811C200.388 53.7172 200.388 53.5862 200.355 53.4879C200.519 53.3241 200.617 53.2094 200.65 53.1439C200.716 53.0784 200.765 52.9145 200.798 52.6524C200.732 52.7507 200.667 52.8326 200.601 52.8982C200.601 52.9637 200.585 53.0128 200.552 53.0456C200.552 52.8818 200.552 52.7507 200.552 52.6524C200.552 52.5214 200.552 52.3903 200.552 52.2593L200.011 51.6696C199.979 51.7023 199.946 51.7515 199.913 51.817C199.88 51.8825 199.831 51.948 199.766 52.0136C199.766 51.7515 199.766 51.5057 199.766 51.2764C199.798 51.0471 199.815 50.8177 199.815 50.5884C199.88 50.5884 199.913 50.6048 199.913 50.6375C199.946 50.6375 199.995 50.6539 200.06 50.6867C200.126 50.4573 200.175 50.2608 200.208 50.0969C200.273 49.9331 200.29 49.7366 200.257 49.5072C200.192 49.1796 200.224 48.9339 200.355 48.77C200.519 48.6062 200.519 48.4097 200.355 48.1803C200.323 48.1476 200.323 48.0984 200.355 48.0329C200.388 47.9674 200.405 47.9182 200.405 47.8854C200.47 47.7544 200.503 47.6725 200.503 47.6397C200.568 47.3776 200.65 47.2302 200.749 47.1974C200.912 47.1974 200.994 47.0664 200.994 46.8043C200.994 46.4439 200.994 46.0999 200.994 45.7722C200.994 45.4446 201.011 45.117 201.043 44.7894V42.8236C201.043 42.5942 201.043 42.3649 201.043 42.1356C201.043 41.8735 201.06 41.6277 201.093 41.3984C201.093 41.1363 201.109 40.8906 201.142 40.6612C201.174 40.3991 201.191 40.1534 201.191 39.9241C201.191 39.4982 201.224 39.0886 201.289 38.6955C201.355 38.3023 201.387 37.8928 201.387 37.4669C201.355 37.303 201.338 37.172 201.338 37.0737C201.371 36.9426 201.387 36.8116 201.387 36.6805C201.387 36.3529 201.322 36.0744 201.191 35.8451C201.158 35.9106 201.125 35.9761 201.093 36.0417C201.093 36.1072 201.076 36.1727 201.043 36.2382V36.8771C201.043 36.9099 200.929 36.9918 200.699 37.1228C200.634 36.959 200.585 36.7788 200.552 36.5823C200.552 36.3529 200.568 36.14 200.601 35.9434C200.699 35.2881 200.683 34.6984 200.552 34.1742C200.552 34.1087 200.486 34.0431 200.355 33.9776C200.323 34.0104 200.273 34.0923 200.208 34.2233C200.208 34.4199 200.208 34.6165 200.208 34.8131C200.208 35.0096 200.192 35.2062 200.159 35.4028C200.159 35.5994 200.159 35.7959 200.159 35.9925C200.192 36.1891 200.175 36.3857 200.11 36.5823C200.077 36.6805 200.06 36.7788 200.06 36.8771C200.06 36.9754 200.06 37.0901 200.06 37.2211C200.159 37.6143 200.142 37.9911 200.011 38.3514C199.979 38.4825 199.946 38.6463 199.913 38.8429C199.913 39.0067 199.913 39.1705 199.913 39.3343C199.848 39.6947 199.716 39.8749 199.52 39.8749C199.487 40.1043 199.454 40.3664 199.422 40.6612C199.422 40.9233 199.389 41.1854 199.323 41.4475V41.7424ZM199.323 41.7424V43.4133C199.323 43.5771 199.307 43.7082 199.274 43.8065C199.274 43.872 199.225 44.0358 199.127 44.2979C198.996 44.1013 198.93 43.9867 198.93 43.9539C198.93 43.7901 198.93 43.6263 198.93 43.4625C198.93 43.2986 198.963 43.1348 199.028 42.971C199.094 42.8727 199.11 42.7417 199.078 42.5779C199.045 42.414 199.012 42.2666 198.979 42.1356C199.11 41.939 199.225 41.8079 199.323 41.7424ZM198.242 35.9925C198.275 35.9598 198.308 35.927 198.34 35.8942L198.439 35.9925C198.439 36.058 198.406 36.0908 198.34 36.0908C198.275 36.0908 198.242 36.058 198.242 35.9925ZM201.043 31.717C201.011 31.848 200.994 31.9463 200.994 32.0118C200.994 32.0446 200.994 32.0774 200.994 32.1101C200.732 32.1756 200.601 32.2248 200.601 32.2576C200.568 32.5524 200.552 32.749 200.552 32.8473C200.552 32.9456 200.568 33.1258 200.601 33.3879C200.601 33.4206 200.601 33.4698 200.601 33.5353C200.601 33.5681 200.601 33.6172 200.601 33.6827V34.0267C200.667 34.0923 200.798 34.1578 200.994 34.2233C201.027 33.994 201.043 33.781 201.043 33.5844C201.043 33.3551 201.06 33.1258 201.093 32.8964L200.994 32.749C201.027 32.5852 201.06 32.4377 201.093 32.3067C201.125 32.1429 201.109 31.9463 201.043 31.717ZM212.15 30.9307L212.248 31.0289C212.478 30.8979 212.789 30.6194 213.182 30.1935C213.608 29.7676 213.854 29.4727 213.919 29.3089C213.788 29.2106 213.673 29.2597 213.575 29.4563C213.542 29.4891 213.51 29.5219 213.477 29.5546C213.477 29.5874 213.444 29.6201 213.379 29.6529C213.248 29.8167 213.1 29.9805 212.936 30.1443C212.772 30.2754 212.609 30.4228 212.445 30.5866L212.15 30.9307ZM212.887 32.8473C212.789 32.7818 212.707 32.7818 212.641 32.8473C212.576 32.88 212.51 32.9292 212.445 32.9947C212.412 33.0275 212.363 33.093 212.297 33.1913C212.265 33.2896 212.216 33.3715 212.15 33.437C212.084 33.5353 212.019 33.6336 211.953 33.7319C211.888 33.8302 211.806 33.9285 211.708 34.0267C211.904 34.1906 212.052 34.1906 212.15 34.0267C212.314 33.8629 212.445 33.6827 212.543 33.4862C212.641 33.2568 212.756 33.0439 212.887 32.8473ZM218.784 49.0649C219.145 49.3925 219.374 49.7857 219.473 50.2444C219.571 50.6703 219.669 50.7194 219.767 50.3918C219.604 50.3263 219.44 50.0806 219.276 49.6546C219.145 49.196 218.981 48.9994 218.784 49.0649ZM213.231 32.4541C213.592 32.2576 213.788 32.1265 213.821 32.061C213.886 31.9955 213.903 31.8972 213.87 31.7661C213.346 31.7661 213.133 31.9955 213.231 32.4541ZM215.639 30.0461C215.443 29.9805 215.312 30.0133 215.246 30.1443C215.181 30.2426 215.099 30.3409 215 30.4392C214.968 30.5703 214.902 30.6849 214.804 30.7832C214.706 30.8815 214.624 30.9798 214.558 31.0781C214.82 31.0126 215.017 30.8815 215.148 30.6849C215.279 30.4556 215.443 30.2426 215.639 30.0461ZM210.528 36.828C210.102 36.959 209.873 37.2047 209.84 37.5651C210.004 37.4996 210.151 37.4177 210.283 37.3194C210.414 37.2211 210.495 37.0573 210.528 36.828ZM200.552 23.903C200.65 24.0668 200.765 24.0505 200.896 23.8539C200.994 23.7556 201.043 23.6409 201.043 23.5099C200.814 23.4771 200.683 23.4771 200.65 23.5099C200.617 23.5426 200.585 23.6737 200.552 23.903ZM201.289 34.2725C201.125 34.6984 201.109 35.0915 201.24 35.4519C201.273 35.2554 201.305 35.0752 201.338 34.9113C201.371 34.7148 201.355 34.5018 201.289 34.2725ZM200.306 22.6253C200.306 22.8874 200.405 23.0512 200.601 23.1167C200.601 23.1167 200.601 23.1003 200.601 23.0676C200.634 23.0348 200.65 23.002 200.65 22.9693C200.585 22.7072 200.503 22.5761 200.405 22.5761C200.372 22.5761 200.355 22.5925 200.355 22.6253C200.355 22.6253 200.339 22.6253 200.306 22.6253ZM204.926 44.2979C205.122 44.3634 205.221 44.2979 205.221 44.1013V43.7573C205.122 43.6918 205.04 43.7409 204.975 43.9048C204.942 44.003 204.926 44.1341 204.926 44.2979ZM199.422 38.9412C199.454 38.9412 199.471 38.9576 199.471 38.9903C199.471 38.9903 199.487 38.9903 199.52 38.9903C199.52 38.9903 199.569 38.892 199.667 38.6955C199.536 38.7282 199.471 38.761 199.471 38.7937C199.438 38.8265 199.422 38.8757 199.422 38.9412ZM218.195 49.6546V49.5564C218.162 49.5564 218.113 49.5564 218.047 49.5564C217.982 49.5236 217.916 49.5072 217.851 49.5072V49.6055C217.916 49.6055 217.982 49.6219 218.047 49.6546C218.113 49.6546 218.162 49.6546 218.195 49.6546ZM214.116 29.1123C214.181 29.1123 214.214 29.0796 214.214 29.014C214.247 28.9813 214.247 28.9649 214.214 28.9649C214.181 28.9321 214.165 28.8994 214.165 28.8666C214.099 28.9321 214.067 28.9649 214.067 28.9649C214.067 28.9976 214.067 29.0304 214.067 29.0632C214.099 29.0632 214.116 29.0796 214.116 29.1123ZM199.52 46.8043C199.553 46.7715 199.585 46.7551 199.618 46.7551C199.716 46.7551 199.815 46.9026 199.913 47.1974C199.782 47.2302 199.7 47.1974 199.667 47.0991C199.635 46.9681 199.585 46.8698 199.52 46.8043ZM199.52 46.8043C199.52 46.8698 199.52 46.9517 199.52 47.05C199.553 47.1483 199.569 47.2466 199.569 47.3449C199.536 47.3449 199.504 47.3612 199.471 47.394C199.438 47.394 199.389 47.394 199.323 47.394C199.323 47.6233 199.323 47.8527 199.323 48.082C199.323 48.2786 199.307 48.4916 199.274 48.7209C199.241 48.9502 199.209 49.1796 199.176 49.4089C199.176 49.6383 199.225 49.8512 199.323 50.0478C199.291 50.0806 199.258 50.1133 199.225 50.1461C199.192 50.1461 199.143 50.1788 199.078 50.2444C199.176 51.1617 199.176 52.161 199.078 53.2422C198.979 53.0456 198.93 52.8818 198.93 52.7507C198.93 52.5869 198.93 52.4231 198.93 52.2593C198.897 52.1938 198.881 52.1119 198.881 52.0136C198.881 51.9153 198.881 51.8334 198.881 51.7678V51.4238C198.947 51.2928 198.963 51.1781 198.93 51.0798C198.93 50.9488 198.914 50.8177 198.881 50.6867C198.848 50.6211 198.816 50.572 198.783 50.5392C198.75 50.4737 198.75 50.4082 198.783 50.3427C198.783 50.0478 198.816 49.8348 198.881 49.7038C199.012 49.5727 199.045 49.4253 198.979 49.2615C198.947 48.9994 198.93 48.7537 198.93 48.5243C198.963 48.295 198.996 48.0656 199.028 47.8363V47.2957C198.93 47.0008 198.947 46.7224 199.078 46.4603C199.143 46.3947 199.176 46.3292 199.176 46.2637C199.11 46.0016 199.094 45.7395 199.127 45.4774C199.16 45.2153 199.143 44.9532 199.078 44.6911C199.078 44.6911 199.078 44.6747 199.078 44.6419C199.11 44.5764 199.127 44.5273 199.127 44.4945C199.225 44.6583 199.274 44.8385 199.274 45.0351C199.274 45.2317 199.291 45.4282 199.323 45.6248V46.6077C199.323 46.7387 199.389 46.8043 199.52 46.8043ZM200.601 45.7722C200.47 45.3791 200.454 44.9696 200.552 44.5436C200.585 44.2488 200.585 43.9867 200.552 43.7573C200.552 43.6918 200.552 43.6263 200.552 43.5607C200.552 43.4625 200.552 43.3969 200.552 43.3642V42.283C200.552 41.9881 200.617 41.8243 200.749 41.7916C200.749 42.0209 200.765 42.2011 200.798 42.3321C200.798 42.3649 200.798 42.3977 200.798 42.4304C200.83 42.4632 200.847 42.5123 200.847 42.5779C200.814 43.0693 200.798 43.5607 200.798 44.0522C200.83 44.5436 200.814 45.0351 200.749 45.5265C200.749 45.5593 200.716 45.6084 200.65 45.674C200.617 45.7067 200.601 45.7395 200.601 45.7722ZM200.601 45.7722C200.667 45.8378 200.732 45.8869 200.798 45.9197C200.765 46.018 200.732 46.1163 200.699 46.2145C200.699 46.3128 200.699 46.4275 200.699 46.5586C200.601 46.5586 200.552 46.4603 200.552 46.2637L200.601 45.7722ZM200.749 41.7916V41.7424C200.749 41.5458 200.749 41.3656 200.749 41.2018C200.749 41.038 200.699 40.8906 200.601 40.7595V40.5629C200.765 40.2026 200.847 39.7275 200.847 39.1378C200.847 39.1378 200.863 39.1378 200.896 39.1378C200.929 39.105 200.961 39.0722 200.994 39.0395C200.961 39.4326 200.945 39.8094 200.945 40.1698C200.978 40.4974 200.961 40.8414 200.896 41.2018C200.896 41.2346 200.896 41.2837 200.896 41.3493C200.929 41.4148 200.929 41.4803 200.896 41.5458C200.896 41.5786 200.847 41.6441 200.749 41.7424V41.7916ZM213.87 45.3791C213.968 45.4446 214.067 45.5429 214.165 45.674C214.296 45.7722 214.427 45.8541 214.558 45.9197C214.525 45.9852 214.493 46.0507 214.46 46.1163C214.427 46.1818 214.394 46.2473 214.361 46.3128C214.132 46.2801 213.985 46.2145 213.919 46.1163C213.854 46.018 213.837 45.7722 213.87 45.3791ZM205.466 54.5691L205.614 55.8468C205.647 55.9779 205.63 56.0925 205.565 56.1908C205.532 56.2564 205.483 56.3383 205.417 56.4366C205.319 55.7485 205.335 55.126 205.466 54.5691ZM214.853 46.2637C215.05 46.4603 215.213 46.5913 215.344 46.6568C215.475 46.7879 215.656 46.8862 215.885 46.9517V47.0991C215.787 47.0008 215.688 46.9517 215.59 46.9517C215.557 46.9517 215.525 46.9517 215.492 46.9517C215.492 46.9189 215.459 46.9189 215.394 46.9517C215.23 46.9517 215.115 46.9189 215.05 46.8534C214.984 46.7879 214.918 46.5913 214.853 46.2637ZM201.977 21.9864C202.108 21.9209 202.206 21.839 202.272 21.7407C202.37 21.6424 202.469 21.626 202.567 21.6915C202.567 21.9536 202.403 22.1993 202.075 22.4287C202.043 22.3632 202.026 22.2976 202.026 22.2321C202.026 22.1666 202.01 22.0847 201.977 21.9864ZM200.749 38.1549C200.814 37.9911 200.83 37.8109 200.798 37.6143C200.798 37.3849 200.88 37.2047 201.043 37.0737C201.043 37.2703 201.043 37.4505 201.043 37.6143C201.043 37.7453 201.027 37.8928 200.994 38.0566C200.994 38.0566 200.912 38.0893 200.749 38.1549ZM198.832 55.3062C198.865 55.0769 198.881 54.8639 198.881 54.6674C198.881 54.438 198.881 54.2087 198.881 53.9793H198.979C199.012 54.2087 199.012 54.438 198.979 54.6674C198.979 54.8639 198.947 55.0769 198.881 55.3062H198.832ZM199.913 41.8898C199.815 41.726 199.782 41.5622 199.815 41.3984C199.88 41.2346 199.913 41.0544 199.913 40.8578C199.913 40.8906 199.946 40.907 200.011 40.907C199.979 41.0708 199.962 41.2346 199.962 41.3984C199.962 41.5622 199.946 41.726 199.913 41.8898ZM217.163 47.6889C217.064 47.8854 216.999 48.0329 216.966 48.1312C216.933 48.0656 216.884 48.0329 216.819 48.0329C216.753 48.0001 216.737 47.9182 216.77 47.7872C216.835 47.6233 216.884 47.5742 216.917 47.6397C216.983 47.6725 217.064 47.6889 217.163 47.6889ZM205.319 50.5884C205.286 50.3263 205.27 50.1625 205.27 50.0969C205.303 49.9987 205.384 49.8512 205.516 49.6546C205.516 49.8512 205.499 50.015 205.466 50.1461C205.466 50.2771 205.45 50.4246 205.417 50.5884H205.319ZM205.368 48.8683V48.2786C205.466 48.4097 205.516 48.5079 205.516 48.5735C205.516 48.6062 205.466 48.7045 205.368 48.8683ZM201.781 21.0035C201.944 21.1018 202.059 21.1509 202.125 21.1509C202.125 21.2492 202.108 21.2984 202.075 21.2984C201.912 21.3639 201.813 21.2656 201.781 21.0035ZM199.618 52.9965C199.684 52.8654 199.716 52.7671 199.716 52.7016C199.749 52.7016 199.766 52.7016 199.766 52.7016L199.716 53.0456C199.684 53.0128 199.651 52.9965 199.618 52.9965ZM216.082 47.5414C216.114 47.5742 216.163 47.607 216.229 47.6397C216.295 47.6397 216.344 47.6561 216.376 47.6889V47.8363C216.311 47.8035 216.245 47.7708 216.18 47.738C216.147 47.7053 216.098 47.6889 216.032 47.6889C216.032 47.6561 216.032 47.6397 216.032 47.6397C216.065 47.607 216.082 47.5742 216.082 47.5414ZM205.466 47.5414C205.466 47.4759 205.45 47.4268 205.417 47.394C205.417 47.3612 205.401 47.3121 205.368 47.2466C205.401 47.2466 205.417 47.2466 205.417 47.2466C205.45 47.2138 205.483 47.1974 205.516 47.1974V47.4923C205.516 47.4923 205.516 47.5087 205.516 47.5414C205.516 47.5414 205.499 47.5414 205.466 47.5414ZM199.176 56.928C199.176 56.9608 199.143 57.0099 199.078 57.0754C199.045 57.0427 199.028 57.0263 199.028 57.0263C199.028 56.9935 199.028 56.9771 199.028 56.9771C199.061 56.9444 199.078 56.928 199.078 56.928C199.11 56.8952 199.143 56.8625 199.176 56.8297V56.928ZM199.471 55.9451C199.438 55.9779 199.422 56.0106 199.422 56.0434L199.372 55.9943C199.372 55.9615 199.372 55.9451 199.372 55.9451C199.405 55.9124 199.422 55.896 199.422 55.896C199.422 55.896 199.422 55.9124 199.422 55.9451C199.422 55.9451 199.438 55.9451 199.471 55.9451ZM199.716 52.2593C199.716 52.2593 199.716 52.2757 199.716 52.3084C199.749 52.3084 199.766 52.3084 199.766 52.3084V52.4067C199.733 52.4067 199.716 52.4067 199.716 52.4067V52.2593ZM222.225 50.5392C222.225 50.572 222.225 50.6048 222.225 50.6375C222.257 50.6375 222.274 50.6539 222.274 50.6867C222.306 50.8177 222.323 50.9488 222.323 51.0798C222.323 51.2109 222.372 51.3092 222.47 51.3747C222.503 51.3747 222.519 51.3747 222.519 51.3747V51.7187C222.519 51.5549 222.503 51.4402 222.47 51.3747C222.438 50.8505 222.405 50.572 222.372 50.5392C222.339 50.4737 222.29 50.4737 222.225 50.5392Z" fill="white"/>
</g>
<defs>
<filter id="filter0_d_197_493" x="115.047" y="20.7087" width="110.525" height="47.581" filterUnits="userSpaceOnUse" color-interpolation-filters="sRGB">
<feFlood flood-opacity="0" result="BackgroundImageFix"/>
<feColorMatrix in="SourceAlpha" type="matrix" values="0 0 0 0 0 0 0 0 0 0 0 0 0 0 0 0 0 0 127 0" result="hardAlpha"/>
<feOffset dy="3.05163"/>
<feGaussianBlur stdDeviation="1.52581"/>
<feComposite in2="hardAlpha" operator="out"/>
<feColorMatrix type="matrix" values="0 0 0 0 0 0 0 0 0 0 0 0 0 0 0 0 0 0 0.25 0"/>
<feBlend mode="normal" in2="BackgroundImageFix" result="effect1_dropShadow_197_493"/>
<feBlend mode="normal" in="SourceGraphic" in2="effect1_dropShadow_197_493" result="shape"/>
</filter>
</defs>
</svg>
